<svg viewBox="0 0 720 882" fill="none" xmlns="http://www.w3.org/2000/svg">
<g id="fignu2">
<path id="fignu2-line" d="M355 707V880" stroke="url(#paint0_linear_39_244)" stroke-width="3" stroke-linecap="round" stroke-dasharray="1 10"/>
<g id="fignu2-screen0" class="fignu2-screen0">
<rect x="202" y="10.432" width="316.149" height="684.568" rx="20" fill="url(#paint1_linear_39_244)"/>
</g>
<g id="fignu2-screen1" class="fignu2-screen1">
<path id="Union" fill-rule="evenodd" clip-rule="evenodd" d="M331.562 328.083C331.562 327.93 331.652 327.575 331.92 327.111C332.18 326.66 332.588 326.144 333.169 325.667C334.325 324.719 336.186 323.912 338.988 324.118C349.833 324.914 356.09 332.405 356.09 338.24V371.248C356.09 371.827 355.957 372.192 355.744 372.414C355.534 372.632 355.173 372.789 354.542 372.789H348.171C347.54 372.789 347.178 372.632 346.969 372.414C346.755 372.192 346.623 371.827 346.623 371.248V340.779C346.623 338.919 345.704 337.029 344.319 335.612C342.933 334.193 341.034 333.202 339.018 333.202H331.562V328.083ZM339.018 334.045H331.562V371.248C331.562 372.035 331.414 372.673 330.968 373.097C330.526 373.517 329.892 373.632 329.171 373.632H322.684C322.06 373.632 321.446 373.51 320.987 373.11C320.517 372.7 320.293 372.072 320.293 371.248V340.433C320.293 339.027 321.109 337.229 322.366 335.798C323.629 334.36 325.415 333.202 327.433 333.202H330.719V328.083C330.719 327.717 330.888 327.211 331.19 326.689C331.5 326.153 331.973 325.558 332.635 325.015C333.966 323.923 336.044 323.056 339.049 323.277C350.215 324.097 356.933 331.852 356.933 338.24V371.248C356.933 371.939 356.776 372.556 356.352 372.997C355.925 373.442 355.302 373.632 354.542 373.632H348.171C347.411 373.632 346.788 373.442 346.36 372.997C345.936 372.556 345.78 371.939 345.78 371.248V340.779C345.78 339.186 344.984 337.498 343.716 336.201C342.45 334.905 340.758 334.045 339.018 334.045ZM327.433 334.045H330.719V371.248C330.719 371.962 330.578 372.305 330.387 372.487C330.191 372.673 329.841 372.789 329.171 372.789H322.684C322.149 372.789 321.778 372.68 321.541 372.474C321.317 372.278 321.136 371.925 321.136 371.248V340.433C321.136 339.3 321.825 337.692 323 336.354C324.17 335.022 325.743 334.045 327.433 334.045ZM389.667 378.642C389.667 378.795 389.578 379.15 389.309 379.614C389.049 380.065 388.642 380.581 388.06 381.058C386.904 382.006 385.043 382.813 382.242 382.607C371.396 381.811 365.139 374.32 365.139 368.485V335.477C365.139 334.898 365.272 334.533 365.485 334.312C365.695 334.093 366.056 333.936 366.687 333.936H373.059C373.689 333.936 374.051 334.093 374.261 334.312C374.474 334.533 374.607 334.898 374.607 335.477V365.946C374.607 367.806 375.525 369.696 376.91 371.113C378.296 372.532 380.195 373.523 382.211 373.523H389.667V378.642ZM382.211 372.68H389.667V335.477C389.667 334.69 389.815 334.052 390.262 333.628C390.703 333.208 391.338 333.093 392.058 333.093H398.546C399.169 333.093 399.783 333.215 400.242 333.615C400.712 334.025 400.937 334.653 400.937 335.477V366.292C400.937 367.698 400.12 369.496 398.863 370.927C397.6 372.365 395.814 373.523 393.797 373.523H390.51V378.642C390.51 379.008 390.341 379.514 390.039 380.036C389.73 380.572 389.257 381.167 388.595 381.71C387.263 382.802 385.186 383.669 382.18 383.448C371.015 382.628 364.296 374.873 364.296 368.485V335.477C364.296 334.786 364.453 334.169 364.877 333.728C365.304 333.283 365.928 333.093 366.687 333.093H373.059C373.818 333.093 374.442 333.283 374.869 333.728C375.293 334.169 375.45 334.786 375.45 335.477V365.946C375.45 367.539 376.245 369.227 377.513 370.524C378.779 371.82 380.471 372.68 382.211 372.68ZM393.797 372.68H390.51V335.477C390.51 334.763 390.652 334.42 390.843 334.238C391.039 334.052 391.389 333.936 392.058 333.936H398.546C399.081 333.936 399.452 334.045 399.688 334.251C399.913 334.447 400.094 334.8 400.094 335.477V366.292C400.094 367.425 399.405 369.033 398.229 370.371C397.06 371.703 395.486 372.68 393.797 372.68Z" fill="#EDEAEF"/>
<rect id="Rectangle 426" x="308.226" y="682.647" width="102.943" height="5.14713" rx="2.57356" fill="#EDEAEF"/>
</g>
<g id="fignu2-screen2" class="fignu2-screen2">
<g clip-path="url(#clip0_39_244)">
<text id="Me ajuda" fill="#FBF9FC" xml:space="preserve" style="white-space: pre" font-family="Source Sans 3" font-size="9.25507" letter-spacing="0em"><tspan x="266.187" y="340.604">Me ajuda</tspan></text>
<text id="Ativar a fun&#195;&#167;&#195;&#163;o d&#195;&#169;bito" fill="#FBF9FC" xml:space="preserve" style="white-space: pre" font-family="Source Sans 3" font-size="9.25507" letter-spacing="0em"><tspan x="266.187" y="381.738">Ativar a fun&#xe7;&#xe3;o d&#xe9;bito</tspan></text>
<text id="Perfil" fill="#FBF9FC" xml:space="preserve" style="white-space: pre" font-family="Source Sans 3" font-size="9.25507" letter-spacing="0em"><tspan x="266.187" y="422.872">Perfil</tspan></text>
<text id="Configurar NuConta" fill="#FBF9FC" xml:space="preserve" style="white-space: pre" font-family="Source Sans 3" font-size="9.25507" letter-spacing="0em"><tspan x="266.187" y="464.005">Configurar NuConta</tspan></text>
<text id="Configurar cart&#195;&#163;o" fill="#FBF9FC" xml:space="preserve" style="white-space: pre" font-family="Source Sans 3" font-size="9.25507" letter-spacing="0em"><tspan x="266.187" y="505.139">Configurar cart&#xe3;o</tspan></text>
<text id="sair do app" fill="#FBF9FC" xml:space="preserve" style="white-space: pre" font-family="Source Sans 3" font-size="9.25507" font-weight="bold" letter-spacing="0em"><tspan x="333.029" y="601.803">SAIR DO APP</tspan></text>
<g id="Group 318">
<text id="Banco" fill="#FBF9FC" xml:space="preserve" style="white-space: pre" font-family="Source Sans 3" font-size="12.3401" letter-spacing="0em"><tspan x="266.449" y="262.462">Banco</tspan></text>
<text id="260 - Nu Pagamentos S.A." fill="#FBF9FC" xml:space="preserve" style="white-space: pre" font-family="Source Sans 3" font-size="12.3401" font-weight="bold" letter-spacing="0em"><tspan x="303.984" y="262.462">260 - Nu Pagamentos S.A.</tspan></text>
</g>
<g id="Group 319">
<text id="0001" fill="#FBF9FC" xml:space="preserve" style="white-space: pre" font-family="Source Sans 3" font-size="12.3401" font-weight="bold" letter-spacing="0em"><tspan x="362.895" y="279.944">0001</tspan></text>
<text id="Ag&#195;&#170;ncia" fill="#FBF9FC" xml:space="preserve" style="white-space: pre" font-family="Source Sans 3" font-size="12.3401" letter-spacing="0em"><tspan x="318.676" y="279.944">Ag&#xea;ncia</tspan></text>
</g>
<g id="Group 320">
<text id="77712444-0" fill="#FBF9FC" xml:space="preserve" style="white-space: pre" font-family="Source Sans 3" font-size="12.3401" font-weight="bold" letter-spacing="0em"><tspan x="338.477" y="297.426">77712444-0</tspan></text>
<text id="Conta" fill="#FBF9FC" xml:space="preserve" style="white-space: pre" font-family="Source Sans 3" font-size="12.3401" letter-spacing="0em"><tspan x="303.514" y="297.426">Conta</tspan></text>
</g>
<path id="Vector" d="M491.651 344.257L497.804 338.086L491.651 331.914" stroke="#FBF9FC" stroke-width="1.02834" stroke-linecap="round" stroke-linejoin="round"/>
<path id="Vector_2" d="M491.651 509.857L497.804 503.686L491.651 497.514" stroke="#FBF9FC" stroke-width="1.02834" stroke-linecap="round" stroke-linejoin="round"/>
<path id="Vector_3" d="M491.651 468.714L497.804 462.543L491.651 456.371" stroke="#FBF9FC" stroke-width="1.02834" stroke-linecap="round" stroke-linejoin="round"/>
<path id="Vector_4" d="M491.651 426.543L497.804 420.371L491.651 414.2" stroke="#FBF9FC" stroke-width="1.02834" stroke-linecap="round" stroke-linejoin="round"/>
<path id="Vector_5" d="M491.651 385.4L497.804 379.229L491.651 373.057" stroke="#FBF9FC" stroke-width="1.02834" stroke-linecap="round" stroke-linejoin="round"/>
<g id="Group 5">
<path id="Vector_6" d="M247.556 428.6V426.543C247.556 425.452 247.124 424.405 246.355 423.634C245.585 422.862 244.542 422.428 243.454 422.428H235.249C234.161 422.428 233.118 422.862 232.348 423.634C231.579 424.405 231.147 425.452 231.147 426.543V428.6" stroke="#FBF9FC" stroke-width="1.02834" stroke-linecap="round" stroke-linejoin="round"/>
<path id="Vector_7" d="M239.352 418.314C241.617 418.314 243.454 416.472 243.454 414.2C243.454 411.928 241.617 410.086 239.352 410.086C237.086 410.086 235.249 411.928 235.249 414.2C235.249 416.472 237.086 418.314 239.352 418.314Z" stroke="#FBF9FC" stroke-width="1.02834" stroke-linecap="round" stroke-linejoin="round"/>
</g>
<g id="Group 7">
<path id="Vector_8" d="M239.352 449.172V471.8" stroke="#FBF9FC" stroke-width="1.02834" stroke-linecap="round" stroke-linejoin="round"/>
<path id="Vector_9" d="M244.48 453.286H236.788C235.836 453.286 234.923 453.665 234.249 454.34C233.576 455.015 233.198 455.931 233.198 456.886C233.198 457.84 233.576 458.756 234.249 459.431C234.923 460.106 235.836 460.486 236.788 460.486H241.916C242.868 460.486 243.781 460.865 244.454 461.54C245.127 462.215 245.505 463.131 245.505 464.086C245.505 465.04 245.127 465.956 244.454 466.631C243.781 467.306 242.868 467.686 241.916 467.686H233.198" stroke="#FBF9FC" stroke-width="1.02834" stroke-linecap="round" stroke-linejoin="round"/>
</g>
<g id="Group 9">
<path id="Vector_10" d="M248.582 494.429H230.121C228.988 494.429 228.07 495.35 228.07 496.486V508.829C228.07 509.965 228.988 510.886 230.121 510.886H248.582C249.715 510.886 250.633 509.965 250.633 508.829V496.486C250.633 495.35 249.715 494.429 248.582 494.429Z" stroke="#FBF9FC" stroke-width="1.02834" stroke-linecap="round" stroke-linejoin="round"/>
<path id="Vector_11" d="M228.07 500.6H250.633" stroke="#FBF9FC" stroke-width="1.02834" stroke-linecap="round" stroke-linejoin="round"/>
</g>
<g id="Group 10">
<path id="Vector_12" d="M248.582 371H230.121C228.988 371 228.07 371.921 228.07 373.057V385.4C228.07 386.536 228.988 387.457 230.121 387.457H248.582C249.715 387.457 250.633 386.536 250.633 385.4V373.057C250.633 371.921 249.715 371 248.582 371Z" stroke="#FBF9FC" stroke-width="1.02834" stroke-linecap="round" stroke-linejoin="round"/>
<path id="Vector_13" d="M228.07 377.171H250.633" stroke="#FBF9FC" stroke-width="1.02834" stroke-linecap="round" stroke-linejoin="round"/>
</g>
<g id="Group 11">
<path id="Vector_14" d="M239.352 346.314C245.016 346.314 249.608 341.709 249.608 336.029C249.608 330.348 245.016 325.743 239.352 325.743C233.687 325.743 229.096 330.348 229.096 336.029C229.096 341.709 233.687 346.314 239.352 346.314Z" stroke="#FBF9FC" stroke-width="1.02834" stroke-linecap="round" stroke-linejoin="round"/>
<path id="Vector_15" d="M236.367 332.943C236.608 332.255 237.084 331.676 237.711 331.307C238.337 330.937 239.074 330.802 239.79 330.926C240.506 331.049 241.155 331.422 241.623 331.98C242.091 332.537 242.347 333.243 242.346 333.971C242.346 336.029 239.27 337.057 239.27 337.057" stroke="#FBF9FC" stroke-width="1.02834" stroke-linecap="round" stroke-linejoin="round"/>
<path id="Vector_16" d="M239.352 341.171H239.362" stroke="#FBF9FC" stroke-width="1.02834" stroke-linecap="round" stroke-linejoin="round"/>
</g>
<path id="Vector 27" d="M217.855 317.446H499.62" stroke="#BB71D2" stroke-width="0.842364"/>
<path id="Vector 28" d="M217.855 523.114H500.649" stroke="#BB71D2" stroke-width="0.842364"/>
<text id="Configurar App" fill="#FBF9FC" xml:space="preserve" style="white-space: pre" font-family="Source Sans 3" font-size="9.25507" letter-spacing="0em"><tspan x="266.187" y="546.272">Configurar App</tspan></text>
<path id="Vector_17" d="M491.651 551L497.804 544.828L491.651 538.657" stroke="#FBF9FC" stroke-width="1.02834" stroke-linecap="round" stroke-linejoin="round"/>
<path id="Vector 33" d="M217.855 564.248H500.649" stroke="#BB71D2" stroke-width="0.842364"/>
<path id="Vector 29" d="M217.855 481.98H500.649" stroke="#BB71D2" stroke-width="0.842364"/>
<path id="Vector 30" d="M217.855 440.847H500.649" stroke="#BB71D2" stroke-width="0.842364"/>
<path id="Vector 31" d="M217.855 399.713H500.649" stroke="#BB71D2" stroke-width="0.842364"/>
<path id="Vector 32" d="M216.827 358.579H499.62" stroke="#BB71D2" stroke-width="0.842364"/>
<rect id="Rectangle 350" x="217.248" y="579.065" width="281.951" height="40.2913" rx="2.66384" stroke="#BB71D2" stroke-width="0.842364"/>
<path id="Vector_18" d="M366.691 117.971L360.537 111.8L354.384 117.971" stroke="#FBF9FC" stroke-width="1.02834" stroke-linecap="round" stroke-linejoin="round"/>
<g id="Group 21">
<rect id="Rectangle 396" x="312.78" y="139.543" width="95.6357" height="95.6357" fill="white"/>
<path id="Union_2" fill-rule="evenodd" clip-rule="evenodd" d="M372.182 146.385H401.417V152.449H372.182V146.385ZM360.831 158.048V152.45H366.429V146.385H354.766V151.983V152.45V158.048V158.048V164.112H360.364V170.022H354.455V181.684H360.52V175.775H366.429V164.112H366.429V158.048H360.831ZM389.91 158.203H383.845V164.268H389.91V158.203ZM319.622 181.373H325.686V187.438H319.622V181.373ZM325.686 187.438H331.285V181.684H342.947V187.283H360.52V193.036H360.52V199.101H354.455V193.347H337.194V187.749H331.751V193.503H325.686V187.438ZM383.845 187.438H383.845V181.684H372.182V187.749H377.781V193.503H383.845V187.438ZM395.508 204.699H401.573V210.764H395.508V204.699ZM401.573 216.518H395.508V222.582H401.573V216.518ZM378.247 210.608H372.182V216.673H377.781V222.271H360.52V228.336H383.845L383.845 228.181V216.518H378.247V210.608ZM366.584 204.699H372.182V210.764L366.584 210.764V216.829H360.52V210.764L366.118 210.764V205.166H360.52V199.101H366.118V193.036H372.182V199.101H366.584V204.699ZM360.52 216.362V222.271H354.455V216.362V216.207V204.699H360.52V216.207V216.362ZM331.285 210.608H337.349V216.673H331.285V210.608ZM337.349 158.203H331.285V164.268H337.349V158.203ZM360.52 181.373H366.584V187.438H360.52V181.373ZM372.182 199.101H395.508V205.166H389.91V216.518H383.845V205.166H372.182V199.101ZM342.792 170.022H325.686V152.45H342.792V170.022ZM319.622 170.022V176.086H348.857V170.488H348.857V152.45H348.857V146.385H319.622V152.45H319.622V170.022V170.022ZM319.622 199.101H348.857L348.857 205.166V222.116H342.792V205.166H325.686V222.116H319.622V205.166V205.166V199.101ZM348.857 222.116H319.622V228.181H348.857V222.116ZM395.353 170.022H378.247V152.45H372.182V170.022V170.022V176.086H401.417L401.417 170.022V152.45H395.353V170.022ZM395.508 187.438H389.444V199.101H395.508V187.438ZM401.573 181.684H395.508V193.347H401.573V181.684Z" fill="#82269E"/>
</g>
<rect id="Rectangle 350_2" x="222.997" y="636.231" width="271.482" height="90.494" rx="5.14171" fill="#FBF9FC"/>
<text id="NuConta" fill="#3C3B3D" xml:space="preserve" style="white-space: pre" font-family="Source Sans 3" font-size="12.3401" letter-spacing="0em"><tspan x="278.243" y="664.773">NuConta</tspan></text>
<g id="Group 21_2">
<path id="Vector_19" d="M451.652 664.143C451.652 664.143 455.755 655.914 462.934 655.914C470.113 655.914 474.215 664.143 474.215 664.143C474.215 664.143 470.113 672.372 462.934 672.372C455.755 672.372 451.652 664.143 451.652 664.143Z" stroke="#3C3B3D" stroke-width="1.02834" stroke-linecap="round" stroke-linejoin="round"/>
<path id="Vector_20" d="M462.934 667.229C464.633 667.229 466.011 665.847 466.011 664.143C466.011 662.439 464.633 661.057 462.934 661.057C461.234 661.057 459.857 662.439 459.857 664.143C459.857 665.847 461.234 667.229 462.934 667.229Z" stroke="#3C3B3D" stroke-width="1.02834" stroke-linecap="round" stroke-linejoin="round"/>
</g>
<path id="Vector_21" d="M246.531 671.343C252.195 671.343 256.787 666.738 256.787 661.057C256.787 655.376 252.195 650.771 246.531 650.771C240.867 650.771 236.275 655.376 236.275 661.057C236.275 666.738 240.867 671.343 246.531 671.343Z" stroke="#3C3B3D" stroke-width="1.02834" stroke-linecap="round" stroke-linejoin="round"/>
<g id="Group 21_3">
<path id="Vector_22" d="M246.531 654.886V666.2" stroke="#3C3B3D" stroke-width="1.02834" stroke-linecap="round" stroke-linejoin="round"/>
<path id="Vector_23" d="M249.095 656.943H245.249C244.773 656.943 244.316 657.132 243.98 657.47C243.643 657.808 243.454 658.265 243.454 658.743C243.454 659.22 243.643 659.678 243.98 660.016C244.316 660.353 244.773 660.543 245.249 660.543H247.813C248.289 660.543 248.745 660.732 249.082 661.07C249.419 661.408 249.608 661.865 249.608 662.343C249.608 662.82 249.419 663.278 249.082 663.616C248.745 663.953 248.289 664.143 247.813 664.143H243.454" stroke="#3C3B3D" stroke-width="1.02834" stroke-linecap="round" stroke-linejoin="round"/>
</g>
<g id="Group 22">
<path id="Vector_24" d="M244.48 533.514H234.224C233.091 533.514 232.172 534.435 232.172 535.571V552.028C232.172 553.165 233.091 554.086 234.224 554.086H244.48C245.612 554.086 246.531 553.165 246.531 552.028V535.571C246.531 534.435 245.612 533.514 244.48 533.514Z" stroke="#FBF9FC" stroke-width="1.02834" stroke-linecap="round" stroke-linejoin="round"/>
<path id="Vector_25" d="M239.352 549.971H239.362" stroke="#FBF9FC" stroke-width="1.02834" stroke-linecap="round" stroke-linejoin="round"/>
</g>
<g id="header">
<g id="Group 322">
<g id="Group 32">
<rect id="Rectangle 421" x="440.16" y="32.8351" width="2.67389" height="3.43786" rx="1.02545" fill="white"/>
<rect id="Rectangle 422" x="443.98" y="31.3071" width="2.67389" height="4.9658" rx="1.02545" fill="white"/>
<rect id="Rectangle 423" x="447.8" y="29.3971" width="2.67389" height="6.87573" rx="1.02545" fill="white"/>
<rect id="Rectangle 424" x="451.62" y="27.4872" width="2.67389" height="8.78565" rx="1.02545" fill="white"/>
</g>
<g id="Group 34">
<path id="Vector 36" d="M491.433 34.0912V31.1379C492.254 31.6302 492.418 32.1224 492.418 32.6146C492.418 33.1068 492.254 33.599 491.433 34.0912Z" fill="white" fill-opacity="0.5"/>
<rect id="Rectangle 413" x="475.354" y="28.8408" width="15.0947" height="7.54735" rx="1.64073" stroke="white" stroke-opacity="0.5" stroke-width="0.656291"/>
<rect id="Rectangle 414" x="476.339" y="29.8253" width="13.1258" height="5.57847" rx="0.984436" fill="#FBF9FC"/>
</g>
<g id="Group 33">
<path id="Subtract" fill-rule="evenodd" clip-rule="evenodd" d="M470.161 30.087L468.93 31.3177C467.741 30.2134 466.147 29.5381 464.396 29.5381C462.638 29.5381 461.039 30.2187 459.848 31.3308L458.619 30.1014C460.028 28.4987 462.094 27.4872 464.396 27.4872C466.691 27.4872 468.752 28.4926 470.161 30.087Z" fill="white"/>
<path id="Subtract_2" fill-rule="evenodd" clip-rule="evenodd" d="M469.252 34.345C469.252 34.3447 469.252 34.3445 469.252 34.3442L469.251 34.3449L469.252 34.345ZM461.955 33.7214L460.869 32.5375C461.848 31.574 463.209 31.0039 464.689 31.068C466.04 31.1265 467.246 31.7024 468.124 32.5962L466.923 33.6974C466.303 33.1562 465.502 32.814 464.615 32.7756C463.599 32.7316 462.66 33.0951 461.955 33.7214Z" fill="white"/>
<path id="Vector 37" d="M464.396 36.2035L462.858 34.6653C463.348 34.1998 463.712 33.9817 464.396 33.9817C465.08 33.9817 465.44 34.1564 465.934 34.6653L464.396 36.2035Z" fill="white"/>
</g>
<text id="22:31" fill="white" xml:space="preserve" style="white-space: pre" font-family="Cairo" font-size="13.3309" font-weight="bold" letter-spacing="0em"><tspan x="234.459" y="36.7391">22:31</tspan></text>
</g>
<g id="Group 323">
<text id="Rhuan Lucas" fill="#FBF9FC" xml:space="preserve" style="white-space: pre" font-family="Sora" font-size="15.12" font-weight="bold" letter-spacing="0em"><tspan x="314.066" y="93.0153">Rhuan Lucas</tspan></text>
<path id="Union_3" fill-rule="evenodd" clip-rule="evenodd" d="M274.874 76.6085C274.874 76.5524 274.908 76.4093 275.019 76.2164C275.127 76.0305 275.296 75.8166 275.537 75.6188C276.015 75.2262 276.789 74.8895 277.958 74.9753C282.502 75.3089 285.113 78.4459 285.113 80.8756V94.7434C285.113 94.9824 285.058 95.1255 284.977 95.2102C284.897 95.2932 284.755 95.3578 284.495 95.3578H281.818C281.558 95.3578 281.417 95.2932 281.337 95.2102C281.256 95.1255 281.201 94.9824 281.201 94.7434V81.9423C281.201 81.1503 280.81 80.3485 280.224 79.7484C279.637 79.1474 278.831 78.726 277.973 78.726H274.874V76.6085ZM277.973 79.146H274.874V94.7434C274.874 95.0766 274.811 95.3564 274.614 95.5442C274.419 95.7296 274.141 95.7778 273.836 95.7778H271.111C270.845 95.7778 270.578 95.7259 270.376 95.5503C270.169 95.3697 270.073 95.0953 270.073 94.7434V81.7969C270.073 81.1956 270.421 80.433 270.953 79.8279C271.487 79.2195 272.245 78.726 273.106 78.726H274.454V76.6085C274.454 76.4464 274.528 76.2277 274.656 76.0063C274.788 75.7777 274.989 75.5247 275.27 75.294C275.837 74.8296 276.718 74.4632 277.989 74.5565C282.692 74.9017 285.533 78.1702 285.533 80.8756V94.7434C285.533 95.0379 285.466 95.3069 285.28 95.5011C285.092 95.6968 284.819 95.7778 284.495 95.7778H281.818C281.494 95.7778 281.222 95.6968 281.034 95.5011C280.848 95.3069 280.781 95.0379 280.781 94.7434V81.9423C280.781 81.2836 280.452 80.5823 279.924 80.0419C279.396 79.5024 278.693 79.146 277.973 79.146ZM273.106 79.146H274.454V94.7434C274.454 95.0406 274.394 95.173 274.324 95.2398C274.251 95.309 274.116 95.3578 273.836 95.3578H271.111C270.889 95.3578 270.743 95.3127 270.652 95.2337C270.567 95.1597 270.493 95.0219 270.493 94.7434V81.7969C270.493 81.3315 270.778 80.6636 271.268 80.105C271.756 79.5495 272.409 79.146 273.106 79.146ZM299.22 97.8495C299.22 97.9056 299.185 98.0488 299.074 98.2417C298.966 98.4275 298.798 98.6414 298.556 98.8393C298.078 99.2319 297.304 99.5685 296.135 99.4827C291.591 99.1491 288.98 96.0121 288.98 93.5825V79.7146C288.98 79.4757 289.035 79.3325 289.117 79.2479C289.196 79.1649 289.338 79.1003 289.598 79.1003H292.275C292.535 79.1003 292.676 79.1649 292.756 79.2479C292.837 79.3325 292.892 79.4757 292.892 79.7146V92.5157C292.892 93.3078 293.283 94.1096 293.869 94.7097C294.456 95.3106 295.262 95.732 296.12 95.732H299.22V97.8495ZM296.12 95.312H299.22V79.7146C299.22 79.3814 299.282 79.1016 299.479 78.9139C299.674 78.7285 299.952 78.6803 300.257 78.6803H302.983C303.248 78.6803 303.515 78.7322 303.717 78.9078C303.924 79.0884 304.02 79.3628 304.02 79.7146V92.6611C304.02 93.2625 303.672 94.025 303.141 94.6302C302.606 95.2385 301.848 95.732 300.987 95.732H299.64V97.8495C299.64 98.0116 299.565 98.2303 299.437 98.4518C299.305 98.6803 299.104 98.9334 298.823 99.164C298.256 99.6284 297.375 99.9949 296.104 99.9016C291.401 99.5563 288.56 96.2878 288.56 93.5825V79.7146C288.56 79.4202 288.627 79.1512 288.814 78.957C289.002 78.7612 289.274 78.6803 289.598 78.6803H292.275C292.599 78.6803 292.871 78.7612 293.059 78.957C293.245 79.1512 293.312 79.4202 293.312 79.7146V92.5157C293.312 93.1744 293.642 93.8758 294.17 94.4161C294.697 94.9557 295.4 95.312 296.12 95.312ZM300.987 95.312H299.64V79.7146C299.64 79.4174 299.699 79.2851 299.769 79.2182C299.842 79.1491 299.978 79.1003 300.257 79.1003H302.983C303.204 79.1003 303.35 79.1454 303.441 79.2244C303.526 79.2983 303.6 79.4361 303.6 79.7146V92.6611C303.6 93.1265 303.315 93.7944 302.825 94.3531C302.337 94.9085 301.684 95.312 300.987 95.312Z" fill="white"/>
</g>
</g>
</g>
</g>
<g id="fignu2-screen3" class="fignu2-screen3">
<g clip-path="url(#clip1_39_244)">
<path id="Vector_26" d="M354.237 113.477L360.373 119.631L366.509 113.477" stroke="#FBF9FC" stroke-width="1.02568" stroke-linecap="round" stroke-linejoin="round"/>
<rect id="Rectangle 344" x="224.412" y="208.866" width="270.781" height="270.781" rx="5.12842" fill="#FEFBFF"/>
<rect id="Rectangle 346" x="224.412" y="418.105" width="270.781" height="61.5411" rx="5.12842" fill="#EDEAEF"/>
<text id="Saldo dispon&#195;&#173;vel" fill="#3C3B3D" xml:space="preserve" style="white-space: pre" font-family="Source Sans 3" font-size="12.3082" letter-spacing="0em"><tspan x="238.153" y="316.476">Saldo dispon&#xed;vel</tspan></text>
<text id="Transfer&#195;&#170;ncia de R$ 500,00 feita para Juliana ontem" fill="#3C3B3D" xml:space="preserve" style="white-space: pre" font-family="Source Sans 3" font-size="9.23116" letter-spacing="0em"><tspan x="282.673" y="446.942">Transfer&#xea;ncia de R$ 500,00 feita para Juliana&#10;</tspan><tspan x="282.673" y="459.942">ontem</tspan></text>
<text id="NuConta_2" fill="#3C3B3D" xml:space="preserve" style="white-space: pre" font-family="Source Sans 3" font-size="12.3082" letter-spacing="0em"><tspan x="280.153" y="237.516">NuConta</tspan></text>
<text id="R$ 2.150,59" fill="#3C3B3D" xml:space="preserve" style="white-space: pre" font-family="Sora" font-size="24.6164" font-weight="bold" letter-spacing="0em"><tspan x="238.153" y="349.97">R$ 2.150,59</tspan></text>
<g id="Group 13">
<path id="Vector_27" d="M452.419 236.559C452.419 236.559 456.51 228.354 463.669 228.354C470.828 228.354 474.919 236.559 474.919 236.559C474.919 236.559 470.828 244.765 463.669 244.765C456.51 244.765 452.419 236.559 452.419 236.559Z" stroke="#3C3B3D" stroke-width="1.02568" stroke-linecap="round" stroke-linejoin="round"/>
<path id="Vector_28" d="M463.669 239.636C465.363 239.636 466.737 238.259 466.737 236.559C466.737 234.86 465.363 233.482 463.669 233.482C461.974 233.482 460.6 234.86 460.6 236.559C460.6 238.259 461.974 239.636 463.669 239.636Z" stroke="#3C3B3D" stroke-width="1.02568" stroke-linecap="round" stroke-linejoin="round"/>
</g>
<g id="Group 332">
<g id="Group 13_2">
<path id="Vector_29" d="M247.873 227.328V238.61" stroke="#3C3B3D" stroke-width="1.02568" stroke-linecap="round" stroke-linejoin="round"/>
<path id="Vector_30" d="M250.43 229.379H246.595C246.12 229.379 245.665 229.568 245.329 229.905C244.994 230.242 244.805 230.698 244.805 231.174C244.805 231.65 244.994 232.107 245.329 232.443C245.665 232.78 246.12 232.969 246.595 232.969H249.152C249.626 232.969 250.082 233.158 250.417 233.495C250.753 233.832 250.941 234.288 250.941 234.764C250.941 235.24 250.753 235.697 250.417 236.033C250.082 236.37 249.626 236.559 249.152 236.559H244.805" stroke="#3C3B3D" stroke-width="1.02568" stroke-linecap="round" stroke-linejoin="round"/>
</g>
<path id="Vector_31" d="M247.873 243.739C253.521 243.739 258.1 239.147 258.1 233.482C258.1 227.817 253.521 223.225 247.873 223.225C242.225 223.225 237.646 227.817 237.646 233.482C237.646 239.147 242.225 243.739 247.873 243.739Z" stroke="#3C3B3D" stroke-width="1.02568" stroke-linecap="round" stroke-linejoin="round"/>
</g>
<g id="Group 331">
<g id="Group 14">
<path id="Vector_32" d="M255.032 444.773V456.055" stroke="#3C3B3D" stroke-width="1.02568" stroke-linecap="round" stroke-linejoin="round"/>
<path id="Vector_33" d="M257.589 446.824H253.754C253.279 446.824 252.824 447.013 252.488 447.35C252.153 447.687 251.964 448.143 251.964 448.619C251.964 449.095 252.153 449.552 252.488 449.888C252.824 450.225 253.279 450.414 253.754 450.414H256.311C256.785 450.414 257.241 450.603 257.576 450.94C257.912 451.276 258.1 451.733 258.1 452.209C258.1 452.685 257.912 453.142 257.576 453.478C257.241 453.815 256.785 454.004 256.311 454.004H251.964" stroke="#3C3B3D" stroke-width="1.02568" stroke-linecap="round" stroke-linejoin="round"/>
</g>
<path id="Vector_34" d="M255.032 440.67C249.384 440.67 244.805 445.262 244.805 450.927C244.805 456.592 249.384 461.184 255.032 461.184C260.681 461.184 265.26 456.592 265.26 450.927C265.26 449.664 265.032 448.455 264.616 447.337" stroke="#3C3B3D" stroke-width="1.02568" stroke-linecap="round" stroke-linejoin="round"/>
<g id="Group 15">
<path id="Vector_35" d="M266.282 441.696L262.191 437.593L258.1 441.696" stroke="#3C3B3D" stroke-width="1.02568" stroke-linecap="round" stroke-linejoin="round"/>
<path id="Vector_36" d="M262.191 445.799V437.593" stroke="#3C3B3D" stroke-width="1.02568" stroke-linecap="round" stroke-linejoin="round"/>
</g>
</g>
<path id="Vector_37" d="M471.85 456.056L477.987 449.901L471.85 443.747" stroke="#3C3B3D" stroke-width="1.02568" stroke-linecap="round" stroke-linejoin="round"/>
<circle id="Ellipse 13" cx="344.418" cy="497.083" r="3.07705" fill="#FEFBFF"/>
<circle id="Ellipse 14" cx="360.828" cy="497.083" r="3.07705" fill="#BB71D2"/>
<circle id="Ellipse 15" cx="377.239" cy="497.083" r="3.07705" fill="#BB71D2"/>
<rect id="Rectangle 425" x="308.713" y="682.732" width="102.568" height="5.12842" rx="2.56421" fill="#EDEAEF"/>
<g id="component-menu" clip-path="url(#clip2_39_244)">
<rect id="Rectangle 426_2" x="215.181" y="559.8" width="85.3369" height="93.3373" rx="2.52" fill="#9C4FB4"/>
<text id="Transferir" fill="#EDEAEF" xml:space="preserve" style="white-space: pre" font-family="Source Sans 3" font-size="12.3082" letter-spacing="0em"><tspan x="224.412" y="642.422">Transferir</tspan></text>
<rect id="Rectangle 427" x="408.01" y="559.8" width="85.3369" height="93.3373" rx="2.52" fill="#9C4FB4"/>
<text id="Cobrar" fill="#EDEAEF" xml:space="preserve" style="white-space: pre" font-family="Source Sans 3" font-size="12.3082" letter-spacing="0em"><tspan x="417.073" y="642.546">Cobrar</tspan></text>
<rect id="Rectangle 428" x="311.596" y="559.8" width="85.3369" height="93.3373" rx="2.52" fill="#9C4FB4"/>
<text id="Depositar" fill="#EDEAEF" xml:space="preserve" style="white-space: pre" font-family="Source Sans 3" font-size="12.3082" letter-spacing="0em"><tspan x="320.827" y="642.422">Depositar </tspan></text>
<g id="Group 328">
<g id="Group 323_2">
<path id="Vector_38" d="M234.578 575.185V586.468" stroke="#EDEAEF" stroke-width="0.84" stroke-linecap="round" stroke-linejoin="round"/>
<path id="Vector_39" d="M237.134 577.237H233.299C232.824 577.237 232.369 577.426 232.034 577.762C231.698 578.099 231.509 578.556 231.509 579.032C231.509 579.508 231.698 579.964 232.034 580.301C232.369 580.638 232.824 580.827 233.299 580.827H235.856C236.331 580.827 236.786 581.016 237.122 581.352C237.457 581.689 237.646 582.146 237.646 582.622C237.646 583.098 237.457 583.554 237.122 583.891C236.786 584.227 236.331 584.417 235.856 584.417H231.509" stroke="#EDEAEF" stroke-width="0.84" stroke-linecap="round" stroke-linejoin="round"/>
</g>
<path id="Vector_40" d="M234.578 571.083C228.929 571.083 224.35 575.675 224.35 581.339C224.35 587.004 228.929 591.596 234.578 591.596C240.226 591.596 244.805 587.004 244.805 581.339C244.805 580.076 244.577 578.867 244.161 577.75" stroke="#EDEAEF" stroke-width="0.84" stroke-linecap="round" stroke-linejoin="round"/>
<g id="Group 324">
<path id="Vector_41" d="M245.828 572.108L241.737 568.006L237.646 572.108" stroke="#EDEAEF" stroke-width="0.84" stroke-linecap="round" stroke-linejoin="round"/>
<path id="Vector_42" d="M241.737 576.211V568.006" stroke="#EDEAEF" stroke-width="0.84" stroke-linecap="round" stroke-linejoin="round"/>
</g>
</g>
<g id="Group 329">
<g id="Group 325">
<path id="Vector_43" d="M330.714 575.185V586.468" stroke="#EDEAEF" stroke-width="0.84" stroke-linecap="round" stroke-linejoin="round"/>
<path id="Vector_44" d="M333.271 577.237H329.436C328.961 577.237 328.506 577.426 328.17 577.762C327.835 578.099 327.646 578.556 327.646 579.032C327.646 579.508 327.835 579.964 328.17 580.301C328.506 580.638 328.961 580.827 329.436 580.827H331.993C332.467 580.827 332.922 581.016 333.258 581.352C333.594 581.689 333.782 582.146 333.782 582.622C333.782 583.098 333.594 583.554 333.258 583.891C332.922 584.227 332.467 584.417 331.993 584.417H327.646" stroke="#EDEAEF" stroke-width="0.84" stroke-linecap="round" stroke-linejoin="round"/>
</g>
<path id="Vector_45" d="M330.714 571.083C325.066 571.083 320.487 575.675 320.487 581.339C320.487 587.004 325.066 591.596 330.714 591.596C336.362 591.596 340.941 587.004 340.941 581.339C340.941 580.076 340.714 578.867 340.297 577.75" stroke="#EDEAEF" stroke-width="0.84" stroke-linecap="round" stroke-linejoin="round"/>
<g id="Group 327">
<path id="Vector_46" d="M333.782 572.108L337.873 576.211L341.964 572.108" stroke="#EDEAEF" stroke-width="0.84" stroke-linecap="round" stroke-linejoin="round"/>
<path id="Vector_47" d="M337.873 568.006V576.211" stroke="#EDEAEF" stroke-width="0.84" stroke-linecap="round" stroke-linejoin="round"/>
</g>
</g>
<g id="Group 330">
<g id="Group 326">
<path id="Vector_48" d="M427.083 574.16V582.536" stroke="#EDEAEF" stroke-width="0.84" stroke-linecap="round" stroke-linejoin="round"/>
<path id="Vector_49" d="M428.981 575.683H426.134C425.781 575.683 425.443 575.823 425.194 576.073C424.945 576.323 424.805 576.662 424.805 577.015C424.805 577.369 424.945 577.708 425.194 577.958C425.443 578.207 425.781 578.348 426.134 578.348H428.032C428.384 578.348 428.722 578.488 428.972 578.738C429.221 578.988 429.361 579.327 429.361 579.68C429.361 580.034 429.221 580.373 428.972 580.623C428.722 580.873 428.384 581.013 428.032 581.013H424.805" stroke="#EDEAEF" stroke-width="0.84" stroke-linecap="round" stroke-linejoin="round"/>
</g>
<path id="Vector_50" d="M436.055 583.391C436.055 583.935 435.839 584.457 435.456 584.841C435.072 585.226 434.552 585.442 434.009 585.442H421.737L417.646 589.545V573.134C417.646 572.59 417.861 572.068 418.245 571.683C418.628 571.299 419.149 571.083 419.691 571.083H434.009C434.552 571.083 435.072 571.299 435.456 571.683C435.839 572.068 436.055 572.59 436.055 573.134V583.391Z" stroke="#EDEAEF" stroke-width="0.84" stroke-linecap="round" stroke-linejoin="round"/>
</g>
<rect id="Rectangle 429" x="504.424" y="559.8" width="17.4366" height="93.3373" rx="2.52" fill="#9C4FB4"/>
</g>
<g id="header_2">
<g id="Group 322_2">
<g id="Group 32_2">
<rect id="Rectangle 421_2" x="440.16" y="32.8351" width="2.67389" height="3.43786" rx="1.02545" fill="white"/>
<rect id="Rectangle 422_2" x="443.98" y="31.3071" width="2.67389" height="4.9658" rx="1.02545" fill="white"/>
<rect id="Rectangle 423_2" x="447.8" y="29.3971" width="2.67389" height="6.87573" rx="1.02545" fill="white"/>
<rect id="Rectangle 424_2" x="451.62" y="27.4872" width="2.67389" height="8.78565" rx="1.02545" fill="white"/>
</g>
<g id="Group 34_2">
<path id="Vector 36_2" d="M491.433 34.0912V31.1379C492.254 31.6302 492.418 32.1224 492.418 32.6146C492.418 33.1068 492.254 33.599 491.433 34.0912Z" fill="white" fill-opacity="0.5"/>
<rect id="Rectangle 413_2" x="475.354" y="28.8408" width="15.0947" height="7.54735" rx="1.64073" stroke="white" stroke-opacity="0.5" stroke-width="0.656291"/>
<rect id="Rectangle 414_2" x="476.339" y="29.8253" width="13.1258" height="5.57847" rx="0.984436" fill="#FBF9FC"/>
</g>
<g id="Group 33_2">
<path id="Subtract_3" fill-rule="evenodd" clip-rule="evenodd" d="M470.161 30.087L468.93 31.3177C467.741 30.2134 466.147 29.5381 464.396 29.5381C462.638 29.5381 461.039 30.2187 459.848 31.3308L458.619 30.1014C460.028 28.4987 462.094 27.4872 464.396 27.4872C466.691 27.4872 468.752 28.4926 470.161 30.087Z" fill="white"/>
<path id="Subtract_4" fill-rule="evenodd" clip-rule="evenodd" d="M469.252 34.345C469.252 34.3447 469.252 34.3445 469.252 34.3442L469.251 34.3449L469.252 34.345ZM461.955 33.7214L460.869 32.5375C461.848 31.574 463.209 31.0039 464.689 31.068C466.04 31.1265 467.246 31.7024 468.124 32.5962L466.923 33.6974C466.303 33.1562 465.502 32.814 464.615 32.7756C463.599 32.7316 462.66 33.0951 461.955 33.7214Z" fill="white"/>
<path id="Vector 37_2" d="M464.396 36.2035L462.858 34.6653C463.348 34.1998 463.712 33.9817 464.396 33.9817C465.08 33.9817 465.44 34.1564 465.934 34.6653L464.396 36.2035Z" fill="white"/>
</g>
<text id="22:31_2" fill="white" xml:space="preserve" style="white-space: pre" font-family="Cairo" font-size="13.3309" font-weight="bold" letter-spacing="0em"><tspan x="234.459" y="36.7391">22:31</tspan></text>
</g>
<g id="Group 323_3">
<text id="Rhuan Lucas_2" fill="#FBF9FC" xml:space="preserve" style="white-space: pre" font-family="Sora" font-size="15.12" font-weight="bold" letter-spacing="0em"><tspan x="314.066" y="93.0153">Rhuan Lucas</tspan></text>
<path id="Union_4" fill-rule="evenodd" clip-rule="evenodd" d="M274.874 76.6085C274.874 76.5524 274.908 76.4093 275.019 76.2164C275.127 76.0305 275.296 75.8166 275.537 75.6188C276.015 75.2262 276.789 74.8895 277.958 74.9753C282.502 75.3089 285.113 78.4459 285.113 80.8756V94.7434C285.113 94.9824 285.058 95.1255 284.977 95.2102C284.897 95.2932 284.755 95.3578 284.495 95.3578H281.818C281.558 95.3578 281.417 95.2932 281.337 95.2102C281.256 95.1255 281.201 94.9824 281.201 94.7434V81.9423C281.201 81.1503 280.81 80.3485 280.224 79.7484C279.637 79.1474 278.831 78.726 277.973 78.726H274.874V76.6085ZM277.973 79.146H274.874V94.7434C274.874 95.0766 274.811 95.3564 274.614 95.5442C274.419 95.7296 274.141 95.7778 273.836 95.7778H271.111C270.845 95.7778 270.578 95.7259 270.376 95.5503C270.169 95.3697 270.073 95.0953 270.073 94.7434V81.7969C270.073 81.1956 270.421 80.433 270.953 79.8279C271.487 79.2195 272.245 78.726 273.106 78.726H274.454V76.6085C274.454 76.4464 274.528 76.2277 274.656 76.0063C274.788 75.7777 274.989 75.5247 275.27 75.294C275.837 74.8296 276.718 74.4632 277.989 74.5565C282.692 74.9017 285.533 78.1702 285.533 80.8756V94.7434C285.533 95.0379 285.466 95.3069 285.28 95.5011C285.092 95.6968 284.819 95.7778 284.495 95.7778H281.818C281.494 95.7778 281.222 95.6968 281.034 95.5011C280.848 95.3069 280.781 95.0379 280.781 94.7434V81.9423C280.781 81.2836 280.452 80.5823 279.924 80.0419C279.396 79.5024 278.693 79.146 277.973 79.146ZM273.106 79.146H274.454V94.7434C274.454 95.0406 274.394 95.173 274.324 95.2398C274.251 95.309 274.116 95.3578 273.836 95.3578H271.111C270.889 95.3578 270.743 95.3127 270.652 95.2337C270.567 95.1597 270.493 95.0219 270.493 94.7434V81.7969C270.493 81.3315 270.778 80.6636 271.268 80.105C271.756 79.5495 272.409 79.146 273.106 79.146ZM299.22 97.8495C299.22 97.9056 299.185 98.0488 299.074 98.2417C298.966 98.4275 298.798 98.6414 298.556 98.8393C298.078 99.2319 297.304 99.5685 296.135 99.4827C291.591 99.1491 288.98 96.0121 288.98 93.5825V79.7146C288.98 79.4757 289.035 79.3325 289.117 79.2479C289.196 79.1649 289.338 79.1003 289.598 79.1003H292.275C292.535 79.1003 292.676 79.1649 292.756 79.2479C292.837 79.3325 292.892 79.4757 292.892 79.7146V92.5157C292.892 93.3078 293.283 94.1096 293.869 94.7097C294.456 95.3106 295.262 95.732 296.12 95.732H299.22V97.8495ZM296.12 95.312H299.22V79.7146C299.22 79.3814 299.282 79.1016 299.479 78.9139C299.674 78.7285 299.952 78.6803 300.257 78.6803H302.983C303.248 78.6803 303.515 78.7322 303.717 78.9078C303.924 79.0884 304.02 79.3628 304.02 79.7146V92.6611C304.02 93.2625 303.672 94.025 303.141 94.6302C302.606 95.2385 301.848 95.732 300.987 95.732H299.64V97.8495C299.64 98.0116 299.565 98.2303 299.437 98.4518C299.305 98.6803 299.104 98.9334 298.823 99.164C298.256 99.6284 297.375 99.9949 296.104 99.9016C291.401 99.5563 288.56 96.2878 288.56 93.5825V79.7146C288.56 79.4202 288.627 79.1512 288.814 78.957C289.002 78.7612 289.274 78.6803 289.598 78.6803H292.275C292.599 78.6803 292.871 78.7612 293.059 78.957C293.245 79.1512 293.312 79.4202 293.312 79.7146V92.5157C293.312 93.1744 293.642 93.8758 294.17 94.4161C294.697 94.9557 295.4 95.312 296.12 95.312ZM300.987 95.312H299.64V79.7146C299.64 79.4174 299.699 79.2851 299.769 79.2182C299.842 79.1491 299.978 79.1003 300.257 79.1003H302.983C303.204 79.1003 303.35 79.1454 303.441 79.2244C303.526 79.2983 303.6 79.4361 303.6 79.7146V92.6611C303.6 93.1265 303.315 93.7944 302.825 94.3531C302.337 94.9085 301.684 95.312 300.987 95.312Z" fill="white"/>
</g>
</g>
</g>
</g>
<g id="fignu2-screen4" class="fignu2-screen4">
<g clip-path="url(#clip3_39_244)">
<path id="Vector_51" d="M354.219 111.8L360.373 117.971L366.527 111.8" stroke="#FBF9FC" stroke-width="1.02834" stroke-linecap="round" stroke-linejoin="round"/>
<rect id="Rectangle 344_2" x="224.331" y="207.271" width="271.482" height="271.482" rx="5.14171" fill="#FEFBFF"/>
<text id="Fatura atual" fill="#54B9C7" xml:space="preserve" style="white-space: pre" font-family="Source Sans 3" font-size="12.3401" letter-spacing="0em"><tspan x="239.494" y="319.557">FATURA ATUAL </tspan></text>
<text id="Limite dispon&#195;&#173;vel" fill="#3C3B3D" xml:space="preserve" style="white-space: pre" font-family="Source Sans 3" font-size="9.25507" letter-spacing="0em"><tspan x="239.494" y="368.687">Limite dispon&#xed;vel</tspan></text>
<text id="Cart&#195;&#163;o de cr&#195;&#169;dito" fill="#3C3B3D" xml:space="preserve" style="white-space: pre" font-family="Source Sans 3" font-size="12.3401" letter-spacing="0em"><tspan x="279.927" y="235.32">Cart&#xe3;o de cr&#xe9;dito</tspan></text>
<g id="R$ 150,64">
<text fill="#54B9C7" xml:space="preserve" style="white-space: pre" font-family="Sora" font-size="24.6802" letter-spacing="0em"><tspan x="237.809" y="349.408">R$</tspan><tspan x="321.635" y="349.408">,64</tspan></text>
<text fill="#54B9C7" xml:space="preserve" style="white-space: pre" font-family="Sora" font-size="24.6802" font-weight="bold" letter-spacing="0em"><tspan x="271.19" y="349.408"> 150</tspan></text>
</g>
<text id="R$ 150,64_2" fill="#9EC249" xml:space="preserve" style="white-space: pre" font-family="Sora" font-size="9.25507" font-weight="bold" letter-spacing="0em"><tspan x="310.252" y="368.543">R$ 150,64</tspan></text>
<g id="Group 13_3">
<path id="Vector_52" d="M452.678 235.229C452.678 235.229 456.78 227 463.959 227C471.139 227 475.241 235.229 475.241 235.229C475.241 235.229 471.139 243.457 463.959 243.457C456.78 243.457 452.678 235.229 452.678 235.229Z" stroke="#3C3B3D" stroke-width="1.02834" stroke-linecap="round" stroke-linejoin="round"/>
<path id="Vector_53" d="M463.959 238.314C465.659 238.314 467.036 236.933 467.036 235.229C467.036 233.524 465.659 232.143 463.959 232.143C462.26 232.143 460.883 233.524 460.883 235.229C460.883 236.933 462.26 238.314 463.959 238.314Z" stroke="#3C3B3D" stroke-width="1.02834" stroke-linecap="round" stroke-linejoin="round"/>
</g>
<circle id="Ellipse 13_2" cx="344.341" cy="496.377" r="3.08502" fill="#BB71D2"/>
<circle id="Ellipse 14_2" cx="360.794" cy="496.377" r="3.08502" fill="#EDEAEF"/>
<circle id="Ellipse 15_2" cx="377.248" cy="496.377" r="3.08502" fill="#BB71D2"/>
<g id="Group 13_4">
<path id="Vector_54" d="M260.889 223.914H242.428C241.296 223.914 240.377 224.835 240.377 225.971V238.314C240.377 239.45 241.296 240.371 242.428 240.371H260.889C262.022 240.371 262.941 239.45 262.941 238.314V225.971C262.941 224.835 262.022 223.914 260.889 223.914Z" stroke="#3C3B3D" stroke-width="1.02834" stroke-linecap="round" stroke-linejoin="round"/>
<path id="Vector_55" d="M240.377 230.086H262.941" stroke="#3C3B3D" stroke-width="1.02834" stroke-linecap="round" stroke-linejoin="round"/>
</g>
<path id="Rectangle 397" d="M490.365 207.413V207.413C493.205 207.413 495.507 209.715 495.507 212.555V272.199H490.365V207.413Z" fill="#F3AE3C"/>
<rect id="Rectangle 398" x="490.365" y="272.199" width="5.14171" height="64.7855" fill="#54B9C7"/>
<rect id="Rectangle 399" x="490.365" y="336.984" width="5.14171" height="92.5507" fill="#9EC249"/>
<path id="Rectangle 346_2" d="M224.025 417.195H495.507V473.753C495.507 476.593 493.205 478.895 490.365 478.895H229.167C226.327 478.895 224.025 476.593 224.025 473.753V417.195Z" fill="#EDEAEF"/>
<text id="Transfer&#195;&#170;ncia de R$ 500,00 feita para Juliana ontem_2" fill="#3C3B3D" xml:space="preserve" style="white-space: pre" font-family="Source Sans 3" font-size="9.25507" letter-spacing="0em"><tspan x="285.725" y="446.523">Transfer&#xea;ncia de R$ 500,00 feita para Juliana&#10;</tspan><tspan x="285.725" y="459.523">ontem</tspan></text>
<g id="Group 14_2">
<path id="Vector_56" d="M254.736 444.029V455.343" stroke="#3C3B3D" stroke-width="1.02834" stroke-linecap="round" stroke-linejoin="round"/>
<path id="Vector_57" d="M257.3 446.086H253.454C252.978 446.086 252.521 446.275 252.185 446.613C251.848 446.951 251.659 447.408 251.659 447.886C251.659 448.363 251.848 448.821 252.185 449.159C252.521 449.496 252.978 449.686 253.454 449.686H256.018C256.494 449.686 256.95 449.875 257.287 450.213C257.623 450.551 257.813 451.008 257.813 451.486C257.813 451.963 257.623 452.421 257.287 452.759C256.95 453.096 256.494 453.286 256.018 453.286H251.659" stroke="#3C3B3D" stroke-width="1.02834" stroke-linecap="round" stroke-linejoin="round"/>
</g>
<path id="Vector_58" d="M254.736 439.914C249.071 439.914 244.48 444.519 244.48 450.2C244.48 455.881 249.071 460.486 254.736 460.486C260.4 460.486 264.992 455.881 264.992 450.2C264.992 448.934 264.764 447.72 264.346 446.6" stroke="#3C3B3D" stroke-width="1.02834" stroke-linecap="round" stroke-linejoin="round"/>
<g id="Group 15_2">
<path id="Vector_59" d="M266.017 440.943L261.915 436.828L257.813 440.943" stroke="#3C3B3D" stroke-width="1.02834" stroke-linecap="round" stroke-linejoin="round"/>
<path id="Vector_60" d="M261.915 445.057V436.828" stroke="#3C3B3D" stroke-width="1.02834" stroke-linecap="round" stroke-linejoin="round"/>
</g>
<path id="Vector_61" d="M472.164 455.343L478.318 449.171L472.164 443" stroke="#3C3B3D" stroke-width="1.02834" stroke-linecap="round" stroke-linejoin="round"/>
<g id="component-menu_2" clip-path="url(#clip4_39_244)">
<rect id="Rectangle 426_3" x="214.773" y="559.379" width="85.5771" height="93.6" rx="2.52709" fill="#9C4FB4"/>
<text id="Transferir_2" fill="#EDEAEF" xml:space="preserve" style="white-space: pre" font-family="Source Sans 3" font-size="12.3429" letter-spacing="0em"><tspan x="224.03" y="642.21">Transferir</tspan></text>
<rect id="Rectangle 427_2" x="408.144" y="559.379" width="85.5771" height="93.6" rx="2.52709" fill="#9C4FB4"/>
<text id="Cobrar_2" fill="#EDEAEF" xml:space="preserve" style="white-space: pre" font-family="Source Sans 3" font-size="12.3429" letter-spacing="0em"><tspan x="417.233" y="642.334">Cobrar</tspan></text>
<rect id="Rectangle 428_2" x="311.458" y="559.379" width="85.5771" height="93.6" rx="2.52709" fill="#9C4FB4"/>
<text id="Depositar_2" fill="#EDEAEF" xml:space="preserve" style="white-space: pre" font-family="Source Sans 3" font-size="12.3429" letter-spacing="0em"><tspan x="320.715" y="642.21">Depositar </tspan></text>
<g id="Group 328_2">
<g id="Group 323_4">
<path id="Vector_62" d="M234.223 574.808V586.122" stroke="#EDEAEF" stroke-width="0.842364" stroke-linecap="round" stroke-linejoin="round"/>
<path id="Vector_63" d="M236.788 576.865H232.941C232.465 576.865 232.009 577.055 231.672 577.392C231.336 577.73 231.147 578.188 231.147 578.665C231.147 579.142 231.336 579.6 231.672 579.938C232.009 580.275 232.465 580.465 232.941 580.465H235.505C235.982 580.465 236.438 580.655 236.775 580.992C237.111 581.33 237.3 581.788 237.3 582.265C237.3 582.742 237.111 583.2 236.775 583.538C236.438 583.875 235.982 584.065 235.505 584.065H231.147" stroke="#EDEAEF" stroke-width="0.842364" stroke-linecap="round" stroke-linejoin="round"/>
</g>
<path id="Vector_64" d="M234.223 570.694C228.559 570.694 223.967 575.299 223.967 580.979C223.967 586.66 228.559 591.265 234.223 591.265C239.888 591.265 244.48 586.66 244.48 580.979C244.48 579.713 244.251 578.5 243.834 577.379" stroke="#EDEAEF" stroke-width="0.842364" stroke-linecap="round" stroke-linejoin="round"/>
<g id="Group 324_2">
<path id="Vector_65" d="M245.505 571.722L241.403 567.608L237.3 571.722" stroke="#EDEAEF" stroke-width="0.842364" stroke-linecap="round" stroke-linejoin="round"/>
<path id="Vector_66" d="M241.403 575.836V567.608" stroke="#EDEAEF" stroke-width="0.842364" stroke-linecap="round" stroke-linejoin="round"/>
</g>
</g>
<g id="Group 329_2">
<g id="Group 325_2">
<path id="Vector_67" d="M330.631 574.808V586.122" stroke="#EDEAEF" stroke-width="0.842364" stroke-linecap="round" stroke-linejoin="round"/>
<path id="Vector_68" d="M333.195 576.865H329.349C328.873 576.865 328.416 577.055 328.08 577.392C327.743 577.73 327.554 578.188 327.554 578.665C327.554 579.142 327.743 579.6 328.08 579.938C328.416 580.275 328.873 580.465 329.349 580.465H331.913C332.389 580.465 332.845 580.655 333.182 580.992C333.518 581.33 333.707 581.788 333.707 582.265C333.707 582.742 333.518 583.2 333.182 583.538C332.845 583.875 332.389 584.065 331.913 584.065H327.554" stroke="#EDEAEF" stroke-width="0.842364" stroke-linecap="round" stroke-linejoin="round"/>
</g>
<path id="Vector_69" d="M330.63 570.694C324.966 570.694 320.374 575.299 320.374 580.979C320.374 586.66 324.966 591.265 330.63 591.265C336.295 591.265 340.886 586.66 340.886 580.979C340.886 579.713 340.658 578.5 340.241 577.379" stroke="#EDEAEF" stroke-width="0.842364" stroke-linecap="round" stroke-linejoin="round"/>
<g id="Group 327_2">
<path id="Vector_70" d="M333.707 571.722L337.81 575.836L341.912 571.722" stroke="#EDEAEF" stroke-width="0.842364" stroke-linecap="round" stroke-linejoin="round"/>
<path id="Vector_71" d="M337.81 567.608V575.836" stroke="#EDEAEF" stroke-width="0.842364" stroke-linecap="round" stroke-linejoin="round"/>
</g>
</g>
<g id="Group 330_2">
<g id="Group 326_2">
<path id="Vector_72" d="M427.271 573.779V582.179" stroke="#EDEAEF" stroke-width="0.842364" stroke-linecap="round" stroke-linejoin="round"/>
<path id="Vector_73" d="M429.174 575.307H426.319C425.965 575.307 425.627 575.447 425.377 575.698C425.127 575.949 424.986 576.289 424.986 576.643C424.986 576.997 425.127 577.337 425.377 577.588C425.627 577.839 425.965 577.979 426.319 577.979H428.222C428.576 577.979 428.915 578.12 429.165 578.371C429.415 578.621 429.555 578.961 429.555 579.316C429.555 579.67 429.415 580.01 429.165 580.261C428.915 580.511 428.576 580.652 428.222 580.652H424.986" stroke="#EDEAEF" stroke-width="0.842364" stroke-linecap="round" stroke-linejoin="round"/>
</g>
<path id="Vector_74" d="M436.268 583.036C436.268 583.582 436.052 584.105 435.667 584.491C435.282 584.877 434.761 585.094 434.217 585.094H421.909L417.807 589.208V572.751C417.807 572.205 418.023 571.682 418.408 571.296C418.792 570.91 419.314 570.694 419.858 570.694H434.217C434.761 570.694 435.282 570.91 435.667 571.296C436.052 571.682 436.268 572.205 436.268 572.751V583.036Z" stroke="#EDEAEF" stroke-width="0.842364" stroke-linecap="round" stroke-linejoin="round"/>
</g>
<rect id="Rectangle 429_2" x="504.83" y="559.379" width="17.4857" height="93.6" rx="2.52709" fill="#9C4FB4"/>
</g>
<rect id="Rectangle 426_4" x="308.568" y="682.657" width="102.857" height="5.14286" rx="2.57143" fill="#EDEAEF"/>
<g id="header_3">
<g id="Group 322_3">
<g id="Group 32_3">
<rect id="Rectangle 421_3" x="440.16" y="32.8351" width="2.67389" height="3.43786" rx="1.02545" fill="white"/>
<rect id="Rectangle 422_3" x="443.98" y="31.3071" width="2.67389" height="4.9658" rx="1.02545" fill="white"/>
<rect id="Rectangle 423_3" x="447.8" y="29.3971" width="2.67389" height="6.87573" rx="1.02545" fill="white"/>
<rect id="Rectangle 424_3" x="451.62" y="27.4872" width="2.67389" height="8.78565" rx="1.02545" fill="white"/>
</g>
<g id="Group 34_3">
<path id="Vector 36_3" d="M491.433 34.0912V31.1379C492.254 31.6302 492.418 32.1224 492.418 32.6146C492.418 33.1068 492.254 33.599 491.433 34.0912Z" fill="white" fill-opacity="0.5"/>
<rect id="Rectangle 413_3" x="475.354" y="28.8408" width="15.0947" height="7.54735" rx="1.64073" stroke="white" stroke-opacity="0.5" stroke-width="0.656291"/>
<rect id="Rectangle 414_3" x="476.339" y="29.8253" width="13.1258" height="5.57847" rx="0.984436" fill="#FBF9FC"/>
</g>
<g id="Group 33_3">
<path id="Subtract_5" fill-rule="evenodd" clip-rule="evenodd" d="M470.161 30.087L468.93 31.3177C467.741 30.2134 466.147 29.5381 464.396 29.5381C462.638 29.5381 461.039 30.2187 459.848 31.3308L458.619 30.1014C460.028 28.4987 462.094 27.4872 464.396 27.4872C466.691 27.4872 468.752 28.4926 470.161 30.087Z" fill="white"/>
<path id="Subtract_6" fill-rule="evenodd" clip-rule="evenodd" d="M469.252 34.345C469.252 34.3447 469.252 34.3445 469.252 34.3442L469.251 34.3449L469.252 34.345ZM461.955 33.7214L460.869 32.5375C461.848 31.574 463.209 31.0039 464.689 31.068C466.04 31.1265 467.246 31.7024 468.124 32.5962L466.923 33.6974C466.303 33.1562 465.502 32.814 464.615 32.7756C463.599 32.7316 462.66 33.0951 461.955 33.7214Z" fill="white"/>
<path id="Vector 37_3" d="M464.396 36.2035L462.858 34.6653C463.348 34.1998 463.712 33.9817 464.396 33.9817C465.08 33.9817 465.44 34.1564 465.934 34.6653L464.396 36.2035Z" fill="white"/>
</g>
<text id="22:31_3" fill="white" xml:space="preserve" style="white-space: pre" font-family="Cairo" font-size="13.3309" font-weight="bold" letter-spacing="0em"><tspan x="234.459" y="36.7391">22:31</tspan></text>
</g>
<g id="Group 323_5">
<text id="Rhuan Lucas_3" fill="#FBF9FC" xml:space="preserve" style="white-space: pre" font-family="Sora" font-size="15.12" font-weight="bold" letter-spacing="0em"><tspan x="314.066" y="93.0153">Rhuan Lucas</tspan></text>
<path id="Union_5" fill-rule="evenodd" clip-rule="evenodd" d="M274.874 76.6085C274.874 76.5524 274.908 76.4093 275.019 76.2164C275.127 76.0305 275.296 75.8166 275.537 75.6188C276.015 75.2262 276.789 74.8895 277.958 74.9753C282.502 75.3089 285.113 78.4459 285.113 80.8756V94.7434C285.113 94.9824 285.058 95.1255 284.977 95.2102C284.897 95.2932 284.755 95.3578 284.495 95.3578H281.818C281.558 95.3578 281.417 95.2932 281.337 95.2102C281.256 95.1255 281.201 94.9824 281.201 94.7434V81.9423C281.201 81.1503 280.81 80.3485 280.224 79.7484C279.637 79.1474 278.831 78.726 277.973 78.726H274.874V76.6085ZM277.973 79.146H274.874V94.7434C274.874 95.0766 274.811 95.3564 274.614 95.5442C274.419 95.7296 274.141 95.7778 273.836 95.7778H271.111C270.845 95.7778 270.578 95.7259 270.376 95.5503C270.169 95.3697 270.073 95.0953 270.073 94.7434V81.7969C270.073 81.1956 270.421 80.433 270.953 79.8279C271.487 79.2195 272.245 78.726 273.106 78.726H274.454V76.6085C274.454 76.4464 274.528 76.2277 274.656 76.0063C274.788 75.7777 274.989 75.5247 275.27 75.294C275.837 74.8296 276.718 74.4632 277.989 74.5565C282.692 74.9017 285.533 78.1702 285.533 80.8756V94.7434C285.533 95.0379 285.466 95.3069 285.28 95.5011C285.092 95.6968 284.819 95.7778 284.495 95.7778H281.818C281.494 95.7778 281.222 95.6968 281.034 95.5011C280.848 95.3069 280.781 95.0379 280.781 94.7434V81.9423C280.781 81.2836 280.452 80.5823 279.924 80.0419C279.396 79.5024 278.693 79.146 277.973 79.146ZM273.106 79.146H274.454V94.7434C274.454 95.0406 274.394 95.173 274.324 95.2398C274.251 95.309 274.116 95.3578 273.836 95.3578H271.111C270.889 95.3578 270.743 95.3127 270.652 95.2337C270.567 95.1597 270.493 95.0219 270.493 94.7434V81.7969C270.493 81.3315 270.778 80.6636 271.268 80.105C271.756 79.5495 272.409 79.146 273.106 79.146ZM299.22 97.8495C299.22 97.9056 299.185 98.0488 299.074 98.2417C298.966 98.4275 298.798 98.6414 298.556 98.8393C298.078 99.2319 297.304 99.5685 296.135 99.4827C291.591 99.1491 288.98 96.0121 288.98 93.5825V79.7146C288.98 79.4757 289.035 79.3325 289.117 79.2479C289.196 79.1649 289.338 79.1003 289.598 79.1003H292.275C292.535 79.1003 292.676 79.1649 292.756 79.2479C292.837 79.3325 292.892 79.4757 292.892 79.7146V92.5157C292.892 93.3078 293.283 94.1096 293.869 94.7097C294.456 95.3106 295.262 95.732 296.12 95.732H299.22V97.8495ZM296.12 95.312H299.22V79.7146C299.22 79.3814 299.282 79.1016 299.479 78.9139C299.674 78.7285 299.952 78.6803 300.257 78.6803H302.983C303.248 78.6803 303.515 78.7322 303.717 78.9078C303.924 79.0884 304.02 79.3628 304.02 79.7146V92.6611C304.02 93.2625 303.672 94.025 303.141 94.6302C302.606 95.2385 301.848 95.732 300.987 95.732H299.64V97.8495C299.64 98.0116 299.565 98.2303 299.437 98.4518C299.305 98.6803 299.104 98.9334 298.823 99.164C298.256 99.6284 297.375 99.9949 296.104 99.9016C291.401 99.5563 288.56 96.2878 288.56 93.5825V79.7146C288.56 79.4202 288.627 79.1512 288.814 78.957C289.002 78.7612 289.274 78.6803 289.598 78.6803H292.275C292.599 78.6803 292.871 78.7612 293.059 78.957C293.245 79.1512 293.312 79.4202 293.312 79.7146V92.5157C293.312 93.1744 293.642 93.8758 294.17 94.4161C294.697 94.9557 295.4 95.312 296.12 95.312ZM300.987 95.312H299.64V79.7146C299.64 79.4174 299.699 79.2851 299.769 79.2182C299.842 79.1491 299.978 79.1003 300.257 79.1003H302.983C303.204 79.1003 303.35 79.1454 303.441 79.2244C303.526 79.2983 303.6 79.4361 303.6 79.7146V92.6611C303.6 93.1265 303.315 93.7944 302.825 94.3531C302.337 94.9085 301.684 95.312 300.987 95.312Z" fill="white"/>
</g>
</g>
</g>
</g>
<g id="fignu2-screen5" class="fignu2-screen5">
<g clip-path="url(#clip5_39_244)">
<path id="Vector_75" d="M354.219 111.8L360.373 117.971L366.527 111.8" stroke="#FBF9FC" stroke-width="1.02834" stroke-linecap="round" stroke-linejoin="round"/>
<rect id="Rectangle 344_3" x="224.025" y="207.413" width="271.482" height="271.482" rx="5.14171" fill="#FEFBFF"/>
<text id="Nubank rewards" fill="#211F21" xml:space="preserve" style="white-space: pre" font-family="Sora" font-size="12.3401" font-weight="bold" letter-spacing="0em"><tspan x="293.405" y="320.208">NUBANK REWARDS</tspan></text>
<text id="Acumule pontos que nunca expiram e troque por passagens a&#195;&#169;reas ou servi&#195;&#167;os que voc&#195;&#170; realmente usa." fill="#3C3B3D" xml:space="preserve" style="white-space: pre" font-family="Source Sans 3" font-size="9.25507" letter-spacing="0em"><tspan x="268.433" y="347.628">Acumule pontos que nunca expiram e troque por&#10;</tspan><tspan x="267.316" y="360.628">passagens a&#xe9;reas ou servi&#xe7;os que voc&#xea; realmente&#10;</tspan><tspan x="354.539" y="373.628">usa.</tspan></text>
<circle id="Ellipse 13_3" cx="344.341" cy="496.377" r="3.08502" fill="#BB71D2"/>
<circle id="Ellipse 14_3" cx="360.794" cy="496.377" r="3.08502" fill="#BB71D2"/>
<circle id="Ellipse 15_3" cx="377.248" cy="496.377" r="3.08502" fill="#EDEAEF"/>
<text id="ative o seu rewards" fill="#82269E" xml:space="preserve" style="white-space: pre" font-family="Source Sans 3" font-size="9.25507" font-weight="bold" letter-spacing="0em"><tspan x="313.491" y="446.523">ATIVE O SEU REWARDS</tspan></text>
<rect id="Rectangle 351" x="259.41" y="423.786" width="205.854" height="40.2913" rx="2.66384" stroke="#82269E" stroke-width="0.842364"/>
<g id="Group 31">
<path id="Vector_76" d="M369.604 248.6V258.886H353.194V248.6" stroke="url(#paint2_linear_39_244)" stroke-width="1.02834" stroke-linecap="round" stroke-linejoin="round"/>
<path id="Vector_77" d="M371.655 243.457H351.143V248.6H371.655V243.457Z" stroke="url(#paint3_linear_39_244)" stroke-width="1.02834" stroke-linecap="round" stroke-linejoin="round"/>
<path id="Vector_78" d="M361.399 258.886V243.457" stroke="url(#paint4_linear_39_244)" stroke-width="1.02834" stroke-linecap="round" stroke-linejoin="round"/>
<path id="Vector_79" d="M361.399 243.457H356.784C356.103 243.457 355.451 243.186 354.97 242.704C354.49 242.222 354.219 241.568 354.219 240.886C354.219 240.204 354.49 239.55 354.97 239.067C355.451 238.585 356.103 238.314 356.784 238.314C360.373 238.314 361.399 243.457 361.399 243.457Z" stroke="url(#paint5_linear_39_244)" stroke-width="1.02834" stroke-linecap="round" stroke-linejoin="round"/>
<path id="Vector_80" d="M361.399 243.457H366.014C366.694 243.457 367.346 243.186 367.827 242.704C368.308 242.222 368.578 241.568 368.578 240.886C368.578 240.204 368.308 239.55 367.827 239.067C367.346 238.585 366.694 238.314 366.014 238.314C362.424 238.314 361.399 243.457 361.399 243.457Z" stroke="url(#paint6_linear_39_244)" stroke-width="1.02834" stroke-linecap="round" stroke-linejoin="round"/>
</g>
<g id="component-menu_3" clip-path="url(#clip6_39_244)">
<rect id="Rectangle 426_5" x="213.93" y="559.379" width="85.5771" height="93.6" rx="2.52709" fill="#9C4FB4"/>
<text id="Transferir_3" fill="#EDEAEF" xml:space="preserve" style="white-space: pre" font-family="Source Sans 3" font-size="12.3429" letter-spacing="0em"><tspan x="223.187" y="642.21">Transferir</tspan></text>
<rect id="Rectangle 427_3" x="407.302" y="559.379" width="85.5771" height="93.6" rx="2.52709" fill="#9C4FB4"/>
<text id="Cobrar_3" fill="#EDEAEF" xml:space="preserve" style="white-space: pre" font-family="Source Sans 3" font-size="12.3429" letter-spacing="0em"><tspan x="416.39" y="642.334">Cobrar</tspan></text>
<rect id="Rectangle 428_3" x="310.616" y="559.379" width="85.5771" height="93.6" rx="2.52709" fill="#9C4FB4"/>
<text id="Depositar_3" fill="#EDEAEF" xml:space="preserve" style="white-space: pre" font-family="Source Sans 3" font-size="12.3429" letter-spacing="0em"><tspan x="319.873" y="642.21">Depositar </tspan></text>
<g id="Group 328_3">
<g id="Group 323_6">
<path id="Vector_81" d="M233.381 574.808V586.122" stroke="#EDEAEF" stroke-width="0.842364" stroke-linecap="round" stroke-linejoin="round"/>
<path id="Vector_82" d="M235.945 576.865H232.099C231.623 576.865 231.167 577.055 230.83 577.392C230.493 577.73 230.304 578.188 230.304 578.665C230.304 579.142 230.493 579.6 230.83 579.938C231.167 580.275 231.623 580.465 232.099 580.465H234.663C235.139 580.465 235.596 580.655 235.932 580.992C236.269 581.33 236.458 581.788 236.458 582.265C236.458 582.742 236.269 583.2 235.932 583.538C235.596 583.875 235.139 584.065 234.663 584.065H230.304" stroke="#EDEAEF" stroke-width="0.842364" stroke-linecap="round" stroke-linejoin="round"/>
</g>
<path id="Vector_83" d="M233.381 570.694C227.717 570.694 223.125 575.299 223.125 580.979C223.125 586.66 227.717 591.265 233.381 591.265C239.045 591.265 243.637 586.66 243.637 580.979C243.637 579.713 243.409 578.5 242.991 577.379" stroke="#EDEAEF" stroke-width="0.842364" stroke-linecap="round" stroke-linejoin="round"/>
<g id="Group 324_3">
<path id="Vector_84" d="M244.663 571.722L240.56 567.608L236.458 571.722" stroke="#EDEAEF" stroke-width="0.842364" stroke-linecap="round" stroke-linejoin="round"/>
<path id="Vector_85" d="M240.56 575.836V567.608" stroke="#EDEAEF" stroke-width="0.842364" stroke-linecap="round" stroke-linejoin="round"/>
</g>
</g>
<g id="Group 329_3">
<g id="Group 325_3">
<path id="Vector_86" d="M329.788 574.808V586.122" stroke="#EDEAEF" stroke-width="0.842364" stroke-linecap="round" stroke-linejoin="round"/>
<path id="Vector_87" d="M332.352 576.865H328.506C328.03 576.865 327.574 577.055 327.237 577.392C326.901 577.73 326.711 578.188 326.711 578.665C326.711 579.142 326.901 579.6 327.237 579.938C327.574 580.275 328.03 580.465 328.506 580.465H331.07C331.546 580.465 332.003 580.655 332.339 580.992C332.676 581.33 332.865 581.788 332.865 582.265C332.865 582.742 332.676 583.2 332.339 583.538C332.003 583.875 331.546 584.065 331.07 584.065H326.711" stroke="#EDEAEF" stroke-width="0.842364" stroke-linecap="round" stroke-linejoin="round"/>
</g>
<path id="Vector_88" d="M329.788 570.694C324.124 570.694 319.532 575.299 319.532 580.979C319.532 586.66 324.124 591.265 329.788 591.265C335.452 591.265 340.044 586.66 340.044 580.979C340.044 579.713 339.816 578.5 339.398 577.379" stroke="#EDEAEF" stroke-width="0.842364" stroke-linecap="round" stroke-linejoin="round"/>
<g id="Group 327_3">
<path id="Vector_89" d="M332.865 571.722L336.967 575.836L341.07 571.722" stroke="#EDEAEF" stroke-width="0.842364" stroke-linecap="round" stroke-linejoin="round"/>
<path id="Vector_90" d="M336.968 567.608V575.836" stroke="#EDEAEF" stroke-width="0.842364" stroke-linecap="round" stroke-linejoin="round"/>
</g>
</g>
<g id="Group 330_3">
<g id="Group 326_3">
<path id="Vector_91" d="M426.428 573.779V582.179" stroke="#EDEAEF" stroke-width="0.842364" stroke-linecap="round" stroke-linejoin="round"/>
<path id="Vector_92" d="M428.332 575.307H425.477C425.123 575.307 424.784 575.447 424.534 575.698C424.284 575.949 424.144 576.289 424.144 576.643C424.144 576.997 424.284 577.337 424.534 577.588C424.784 577.839 425.123 577.979 425.477 577.979H427.38C427.733 577.979 428.072 578.12 428.322 578.371C428.572 578.621 428.713 578.961 428.713 579.316C428.713 579.67 428.572 580.01 428.322 580.261C428.072 580.511 427.733 580.652 427.38 580.652H424.144" stroke="#EDEAEF" stroke-width="0.842364" stroke-linecap="round" stroke-linejoin="round"/>
</g>
<path id="Vector_93" d="M435.425 583.036C435.425 583.582 435.209 584.105 434.825 584.491C434.44 584.877 433.918 585.094 433.374 585.094H421.067L416.965 589.208V572.751C416.965 572.205 417.181 571.682 417.565 571.296C417.95 570.91 418.472 570.694 419.016 570.694H433.374C433.918 570.694 434.44 570.91 434.825 571.296C435.209 571.682 435.425 572.205 435.425 572.751V583.036Z" stroke="#EDEAEF" stroke-width="0.842364" stroke-linecap="round" stroke-linejoin="round"/>
</g>
<rect id="Rectangle 429_3" x="503.987" y="559.379" width="17.4857" height="93.6" rx="2.52709" fill="#9C4FB4"/>
</g>
<rect id="Rectangle 427_4" x="308.568" y="682.657" width="102.857" height="5.14286" rx="2.57143" fill="#EDEAEF"/>
<g id="header_4">
<g id="Group 322_4">
<g id="Group 32_4">
<rect id="Rectangle 421_4" x="440.16" y="32.8351" width="2.67389" height="3.43786" rx="1.02545" fill="white"/>
<rect id="Rectangle 422_4" x="443.98" y="31.3071" width="2.67389" height="4.9658" rx="1.02545" fill="white"/>
<rect id="Rectangle 423_4" x="447.8" y="29.3971" width="2.67389" height="6.87573" rx="1.02545" fill="white"/>
<rect id="Rectangle 424_4" x="451.62" y="27.4872" width="2.67389" height="8.78565" rx="1.02545" fill="white"/>
</g>
<g id="Group 34_4">
<path id="Vector 36_4" d="M491.433 34.0912V31.1379C492.254 31.6302 492.418 32.1224 492.418 32.6146C492.418 33.1068 492.254 33.599 491.433 34.0912Z" fill="white" fill-opacity="0.5"/>
<rect id="Rectangle 413_4" x="475.354" y="28.8408" width="15.0947" height="7.54735" rx="1.64073" stroke="white" stroke-opacity="0.5" stroke-width="0.656291"/>
<rect id="Rectangle 414_4" x="476.339" y="29.8253" width="13.1258" height="5.57847" rx="0.984436" fill="#FBF9FC"/>
</g>
<g id="Group 33_4">
<path id="Subtract_7" fill-rule="evenodd" clip-rule="evenodd" d="M470.161 30.087L468.93 31.3177C467.741 30.2134 466.147 29.5381 464.396 29.5381C462.638 29.5381 461.039 30.2187 459.848 31.3308L458.619 30.1014C460.028 28.4987 462.094 27.4872 464.396 27.4872C466.691 27.4872 468.752 28.4926 470.161 30.087Z" fill="white"/>
<path id="Subtract_8" fill-rule="evenodd" clip-rule="evenodd" d="M469.252 34.345C469.252 34.3447 469.252 34.3445 469.252 34.3442L469.251 34.3449L469.252 34.345ZM461.955 33.7214L460.869 32.5375C461.848 31.574 463.209 31.0039 464.689 31.068C466.04 31.1265 467.246 31.7024 468.124 32.5962L466.923 33.6974C466.303 33.1562 465.502 32.814 464.615 32.7756C463.599 32.7316 462.66 33.0951 461.955 33.7214Z" fill="white"/>
<path id="Vector 37_4" d="M464.396 36.2035L462.858 34.6653C463.348 34.1998 463.712 33.9817 464.396 33.9817C465.08 33.9817 465.44 34.1564 465.934 34.6653L464.396 36.2035Z" fill="white"/>
</g>
<text id="22:31_4" fill="white" xml:space="preserve" style="white-space: pre" font-family="Cairo" font-size="13.3309" font-weight="bold" letter-spacing="0em"><tspan x="234.459" y="36.7391">22:31</tspan></text>
</g>
<g id="Group 323_7">
<text id="Rhuan Lucas_4" fill="#FBF9FC" xml:space="preserve" style="white-space: pre" font-family="Sora" font-size="15.12" font-weight="bold" letter-spacing="0em"><tspan x="314.066" y="93.0153">Rhuan Lucas</tspan></text>
<path id="Union_6" fill-rule="evenodd" clip-rule="evenodd" d="M274.874 76.6085C274.874 76.5524 274.908 76.4093 275.019 76.2164C275.127 76.0305 275.296 75.8166 275.537 75.6188C276.015 75.2262 276.789 74.8895 277.958 74.9753C282.502 75.3089 285.113 78.4459 285.113 80.8756V94.7434C285.113 94.9824 285.058 95.1255 284.977 95.2102C284.897 95.2932 284.755 95.3578 284.495 95.3578H281.818C281.558 95.3578 281.417 95.2932 281.337 95.2102C281.256 95.1255 281.201 94.9824 281.201 94.7434V81.9423C281.201 81.1503 280.81 80.3485 280.224 79.7484C279.637 79.1474 278.831 78.726 277.973 78.726H274.874V76.6085ZM277.973 79.146H274.874V94.7434C274.874 95.0766 274.811 95.3564 274.614 95.5442C274.419 95.7296 274.141 95.7778 273.836 95.7778H271.111C270.845 95.7778 270.578 95.7259 270.376 95.5503C270.169 95.3697 270.073 95.0953 270.073 94.7434V81.7969C270.073 81.1956 270.421 80.433 270.953 79.8279C271.487 79.2195 272.245 78.726 273.106 78.726H274.454V76.6085C274.454 76.4464 274.528 76.2277 274.656 76.0063C274.788 75.7777 274.989 75.5247 275.27 75.294C275.837 74.8296 276.718 74.4632 277.989 74.5565C282.692 74.9017 285.533 78.1702 285.533 80.8756V94.7434C285.533 95.0379 285.466 95.3069 285.28 95.5011C285.092 95.6968 284.819 95.7778 284.495 95.7778H281.818C281.494 95.7778 281.222 95.6968 281.034 95.5011C280.848 95.3069 280.781 95.0379 280.781 94.7434V81.9423C280.781 81.2836 280.452 80.5823 279.924 80.0419C279.396 79.5024 278.693 79.146 277.973 79.146ZM273.106 79.146H274.454V94.7434C274.454 95.0406 274.394 95.173 274.324 95.2398C274.251 95.309 274.116 95.3578 273.836 95.3578H271.111C270.889 95.3578 270.743 95.3127 270.652 95.2337C270.567 95.1597 270.493 95.0219 270.493 94.7434V81.7969C270.493 81.3315 270.778 80.6636 271.268 80.105C271.756 79.5495 272.409 79.146 273.106 79.146ZM299.22 97.8495C299.22 97.9056 299.185 98.0488 299.074 98.2417C298.966 98.4275 298.798 98.6414 298.556 98.8393C298.078 99.2319 297.304 99.5685 296.135 99.4827C291.591 99.1491 288.98 96.0121 288.98 93.5825V79.7146C288.98 79.4757 289.035 79.3325 289.117 79.2479C289.196 79.1649 289.338 79.1003 289.598 79.1003H292.275C292.535 79.1003 292.676 79.1649 292.756 79.2479C292.837 79.3325 292.892 79.4757 292.892 79.7146V92.5157C292.892 93.3078 293.283 94.1096 293.869 94.7097C294.456 95.3106 295.262 95.732 296.12 95.732H299.22V97.8495ZM296.12 95.312H299.22V79.7146C299.22 79.3814 299.282 79.1016 299.479 78.9139C299.674 78.7285 299.952 78.6803 300.257 78.6803H302.983C303.248 78.6803 303.515 78.7322 303.717 78.9078C303.924 79.0884 304.02 79.3628 304.02 79.7146V92.6611C304.02 93.2625 303.672 94.025 303.141 94.6302C302.606 95.2385 301.848 95.732 300.987 95.732H299.64V97.8495C299.64 98.0116 299.565 98.2303 299.437 98.4518C299.305 98.6803 299.104 98.9334 298.823 99.164C298.256 99.6284 297.375 99.9949 296.104 99.9016C291.401 99.5563 288.56 96.2878 288.56 93.5825V79.7146C288.56 79.4202 288.627 79.1512 288.814 78.957C289.002 78.7612 289.274 78.6803 289.598 78.6803H292.275C292.599 78.6803 292.871 78.7612 293.059 78.957C293.245 79.1512 293.312 79.4202 293.312 79.7146V92.5157C293.312 93.1744 293.642 93.8758 294.17 94.4161C294.697 94.9557 295.4 95.312 296.12 95.312ZM300.987 95.312H299.64V79.7146C299.64 79.4174 299.699 79.2851 299.769 79.2182C299.842 79.1491 299.978 79.1003 300.257 79.1003H302.983C303.204 79.1003 303.35 79.1454 303.441 79.2244C303.526 79.2983 303.6 79.4361 303.6 79.7146V92.6611C303.6 93.1265 303.315 93.7944 302.825 94.3531C302.337 94.9085 301.684 95.312 300.987 95.312Z" fill="white"/>
</g>
</g>
</g>
</g>
<g id="fignu2-phone">
<g id="Group 451">
<g id="Rectangle 1028" filter="url(#filter0_i_39_244)">
<rect x="186" y="143.19" width="3.35152" height="27.4074" rx="1.15981" fill="#E1E8EE"/>
</g>
<g id="Rectangle 1029" filter="url(#filter1_i_39_244)">
<rect x="186.559" y="194.089" width="3.35152" height="54.2555" rx="1.15981" fill="#E1E8EE"/>
</g>
<g id="Rectangle 1030" filter="url(#filter2_i_39_244)">
<rect x="186.559" y="261.769" width="3.35152" height="54.2555" rx="1.15981" fill="#E1E8EE"/>
</g>
<g id="Rectangle 1031" filter="url(#filter3_i_39_244)">
<rect x="530.648" y="213.107" width="3.35153" height="85.019" rx="1.15981" fill="#E1E8EE"/>
</g>
<g id="Exclude" filter="url(#filter4_i_39_244)">
<path fill-rule="evenodd" clip-rule="evenodd" d="M248.523 0C215.535 0 188.793 26.7421 188.793 59.7302V647.27C188.793 680.258 215.535 707 248.523 707H472.035C505.024 707 531.766 680.258 531.766 647.27V59.7302C531.766 26.7421 505.024 0 472.035 0H248.523ZM251.252 3.91541C219.225 3.91541 193.262 29.8787 193.262 61.9059V643.976C193.262 676.003 219.225 701.966 251.252 701.966H468.748C500.775 701.966 526.738 676.003 526.738 643.975V61.9059C526.738 29.8786 500.775 3.91541 468.748 3.91541H251.252Z" fill="#D9D9D9"/>
</g>
<g id="Subtract_9" filter="url(#filter5_i_39_244)">
<path fill-rule="evenodd" clip-rule="evenodd" d="M251.252 3.91541C219.225 3.91541 193.262 29.8787 193.262 61.9059V643.976C193.262 676.003 219.225 701.966 251.252 701.966H468.748C500.775 701.966 526.738 676.003 526.738 643.975V61.9059C526.738 29.8786 500.775 3.91541 468.748 3.91541H251.252ZM203.875 61.4945C203.875 35.8726 224.645 15.1021 250.267 15.1021H469.174C494.796 15.1021 515.567 35.8726 515.567 61.4945V644.946C515.567 670.568 494.796 691.339 469.174 691.339H250.267C224.645 691.339 203.875 670.568 203.875 644.946V61.4945ZM323.412 53.137C306.376 53.137 305.538 24.3315 323.412 24.3315H395.749C413.065 24.3315 413.065 53.137 395.749 53.137H323.412Z" fill="black"/>
</g>
</g>
</g>
<g id="fignu2-icon1" class="fignu2-icon1">
<g id="Rectangle 890" filter="url(#filter6_dddd_39_244)">
<path id="Vector_94" d="M607.692 501H532.308C514.465 501 500 515.465 500 533.308V608.692C500 626.535 514.465 641 532.308 641H607.692C625.535 641 640 626.535 640 608.692V533.308C640 515.465 625.535 501 607.692 501Z" fill="#FBF8FC"/>
</g>
<path id="Vector_94_2" d="M594 554L561 587L546 572" stroke="url(#paint7_linear_39_244)" stroke-width="5.96174" stroke-linecap="round" stroke-linejoin="round"/>
</g>
<g id="fignu2-icon3" class="fignu2-icon3">
<g id="Rectangle 884" filter="url(#filter7_dddd_39_244)">
<path id="Vector_95" d="M607.692 66H532.308C514.465 66 500 80.4646 500 98.3077V173.692C500 191.535 514.465 206 532.308 206H607.692C625.535 206 640 191.535 640 173.692V98.3077C640 80.4646 625.535 66 607.692 66Z" fill="#FBF8FC"/>
</g>
<g id="Group 289">
<path id="Vector_97" d="M570 103V169" stroke="url(#paint8_linear_39_244)" stroke-width="5.96174" stroke-linecap="round" stroke-linejoin="round"/>
<path id="Vector_98" d="M585 115H562.5C559.715 115 557.045 116.106 555.075 118.075C553.106 120.044 552 122.715 552 125.5C552 128.285 553.106 130.955 555.075 132.924C557.045 134.894 559.715 136 562.5 136H577.5C580.285 136 582.955 137.106 584.925 139.075C586.894 141.044 588 143.715 588 146.5C588 149.285 586.894 151.955 584.925 153.924C582.955 155.894 580.285 157 577.5 157H552" stroke="url(#paint9_linear_39_244)" stroke-width="5.96174" stroke-linecap="round" stroke-linejoin="round"/>
</g>
</g>
<g id="fignu2-icon5" class="fignu2-icon5">
<g id="Rectangle 879" filter="url(#filter8_dddd_39_244)">
<path id="Vector_96" d="M187.692 146H112.308C94.4647 146 80 160.465 80 178.308V253.692C80 271.535 94.4647 286 112.308 286H187.692C205.535 286 220 271.535 220 253.692V178.308C220 160.465 205.535 146 187.692 146Z" fill="#FBF8FC"/>
</g>
<path id="Vector_101" d="M150 246C150 246 174 234 174 216V195L150 186L126 195V216C126 234 150 246 150 246Z" stroke="url(#paint10_linear_39_244)" stroke-width="5.96174" stroke-linecap="round" stroke-linejoin="round"/>
</g>
</g>
<defs>
<filter id="filter0_i_39_244" x="184.26" y="143.19" width="5.09125" height="27.4075" filterUnits="userSpaceOnUse" color-interpolation-filters="sRGB">
<feFlood flood-opacity="0" result="BackgroundImageFix"/>
<feBlend mode="normal" in="SourceGraphic" in2="BackgroundImageFix" result="shape"/>
<feColorMatrix in="SourceAlpha" type="matrix" values="0 0 0 0 0 0 0 0 0 0 0 0 0 0 0 0 0 0 127 0" result="hardAlpha"/>
<feOffset dx="-1.73972"/>
<feGaussianBlur stdDeviation="1.15981"/>
<feComposite in2="hardAlpha" operator="arithmetic" k2="-1" k3="1"/>
<feColorMatrix type="matrix" values="0 0 0 0 0.603922 0 0 0 0 0.631373 0 0 0 0 0.647059 0 0 0 1 0"/>
<feBlend mode="normal" in2="shape" result="effect1_innerShadow_39_244"/>
</filter>
<filter id="filter1_i_39_244" x="184.819" y="194.089" width="5.09125" height="54.2555" filterUnits="userSpaceOnUse" color-interpolation-filters="sRGB">
<feFlood flood-opacity="0" result="BackgroundImageFix"/>
<feBlend mode="normal" in="SourceGraphic" in2="BackgroundImageFix" result="shape"/>
<feColorMatrix in="SourceAlpha" type="matrix" values="0 0 0 0 0 0 0 0 0 0 0 0 0 0 0 0 0 0 127 0" result="hardAlpha"/>
<feOffset dx="-1.73972"/>
<feGaussianBlur stdDeviation="1.15981"/>
<feComposite in2="hardAlpha" operator="arithmetic" k2="-1" k3="1"/>
<feColorMatrix type="matrix" values="0 0 0 0 0.603922 0 0 0 0 0.631373 0 0 0 0 0.647059 0 0 0 1 0"/>
<feBlend mode="normal" in2="shape" result="effect1_innerShadow_39_244"/>
</filter>
<filter id="filter2_i_39_244" x="184.819" y="261.769" width="5.09125" height="54.2555" filterUnits="userSpaceOnUse" color-interpolation-filters="sRGB">
<feFlood flood-opacity="0" result="BackgroundImageFix"/>
<feBlend mode="normal" in="SourceGraphic" in2="BackgroundImageFix" result="shape"/>
<feColorMatrix in="SourceAlpha" type="matrix" values="0 0 0 0 0 0 0 0 0 0 0 0 0 0 0 0 0 0 127 0" result="hardAlpha"/>
<feOffset dx="-1.73972"/>
<feGaussianBlur stdDeviation="1.15981"/>
<feComposite in2="hardAlpha" operator="arithmetic" k2="-1" k3="1"/>
<feColorMatrix type="matrix" values="0 0 0 0 0.603922 0 0 0 0 0.631373 0 0 0 0 0.647059 0 0 0 1 0"/>
<feBlend mode="normal" in2="shape" result="effect1_innerShadow_39_244"/>
</filter>
<filter id="filter3_i_39_244" x="530.648" y="213.107" width="5.09125" height="85.019" filterUnits="userSpaceOnUse" color-interpolation-filters="sRGB">
<feFlood flood-opacity="0" result="BackgroundImageFix"/>
<feBlend mode="normal" in="SourceGraphic" in2="BackgroundImageFix" result="shape"/>
<feColorMatrix in="SourceAlpha" type="matrix" values="0 0 0 0 0 0 0 0 0 0 0 0 0 0 0 0 0 0 127 0" result="hardAlpha"/>
<feOffset dx="1.73972"/>
<feGaussianBlur stdDeviation="1.15981"/>
<feComposite in2="hardAlpha" operator="arithmetic" k2="-1" k3="1"/>
<feColorMatrix type="matrix" values="0 0 0 0 0.603922 0 0 0 0 0.631373 0 0 0 0 0.647059 0 0 0 1 0"/>
<feBlend mode="normal" in2="shape" result="effect1_innerShadow_39_244"/>
</filter>
<filter id="filter4_i_39_244" x="188.793" y="0" width="344.133" height="708.16" filterUnits="userSpaceOnUse" color-interpolation-filters="sRGB">
<feFlood flood-opacity="0" result="BackgroundImageFix"/>
<feBlend mode="normal" in="SourceGraphic" in2="BackgroundImageFix" result="shape"/>
<feColorMatrix in="SourceAlpha" type="matrix" values="0 0 0 0 0 0 0 0 0 0 0 0 0 0 0 0 0 0 127 0" result="hardAlpha"/>
<feOffset dx="1.15981" dy="1.15981"/>
<feGaussianBlur stdDeviation="1.15981"/>
<feComposite in2="hardAlpha" operator="arithmetic" k2="-1" k3="1"/>
<feColorMatrix type="matrix" values="0 0 0 0 0.498039 0 0 0 0 0.521569 0 0 0 0 0.537255 0 0 0 1 0"/>
<feBlend mode="normal" in2="shape" result="effect1_innerShadow_39_244"/>
</filter>
<filter id="filter5_i_39_244" x="193.262" y="3.91541" width="335.216" height="698.051" filterUnits="userSpaceOnUse" color-interpolation-filters="sRGB">
<feFlood flood-opacity="0" result="BackgroundImageFix"/>
<feBlend mode="normal" in="SourceGraphic" in2="BackgroundImageFix" result="shape"/>
<feColorMatrix in="SourceAlpha" type="matrix" values="0 0 0 0 0 0 0 0 0 0 0 0 0 0 0 0 0 0 127 0" result="hardAlpha"/>
<feOffset dx="1.73972"/>
<feGaussianBlur stdDeviation="1.15981"/>
<feComposite in2="hardAlpha" operator="arithmetic" k2="-1" k3="1"/>
<feColorMatrix type="matrix" values="0 0 0 0 0.254902 0 0 0 0 0.258824 0 0 0 0 0.262745 0 0 0 1 0"/>
<feBlend mode="normal" in2="shape" result="effect1_innerShadow_39_244"/>
</filter>
<filter id="filter6_dddd_39_244" x="420" y="472" width="300" height="300" filterUnits="userSpaceOnUse" color-interpolation-filters="sRGB">
<feFlood flood-opacity="0" result="BackgroundImageFix"/>
<feColorMatrix in="SourceAlpha" type="matrix" values="0 0 0 0 0 0 0 0 0 0 0 0 0 0 0 0 0 0 127 0" result="hardAlpha"/>
<feOffset dy="2.30969"/>
<feGaussianBlur stdDeviation="1.81152"/>
<feColorMatrix type="matrix" values="0 0 0 0 0.662745 0 0 0 0 0.313726 0 0 0 0 0.768627 0 0 0 0.0278729 0"/>
<feBlend mode="normal" in2="BackgroundImageFix" result="effect1_dropShadow_39_244"/>
<feColorMatrix in="SourceAlpha" type="matrix" values="0 0 0 0 0 0 0 0 0 0 0 0 0 0 0 0 0 0 127 0" result="hardAlpha"/>
<feOffset dy="6.38599"/>
<feGaussianBlur stdDeviation="5.00862"/>
<feColorMatrix type="matrix" values="0 0 0 0 0.662745 0 0 0 0 0.313726 0 0 0 0 0.768627 0 0 0 0.04 0"/>
<feBlend mode="normal" in2="effect1_dropShadow_39_244" result="effect2_dropShadow_39_244"/>
<feColorMatrix in="SourceAlpha" type="matrix" values="0 0 0 0 0 0 0 0 0 0 0 0 0 0 0 0 0 0 127 0" result="hardAlpha"/>
<feOffset dy="15.375"/>
<feGaussianBlur stdDeviation="12.0588"/>
<feColorMatrix type="matrix" values="0 0 0 0 0.662745 0 0 0 0 0.313726 0 0 0 0 0.768627 0 0 0 0.0521271 0"/>
<feBlend mode="normal" in2="effect2_dropShadow_39_244" result="effect3_dropShadow_39_244"/>
<feColorMatrix in="SourceAlpha" type="matrix" values="0 0 0 0 0 0 0 0 0 0 0 0 0 0 0 0 0 0 127 0" result="hardAlpha"/>
<feOffset dy="51"/>
<feGaussianBlur stdDeviation="40"/>
<feColorMatrix type="matrix" values="0 0 0 0 0.662745 0 0 0 0 0.313726 0 0 0 0 0.768627 0 0 0 0.08 0"/>
<feBlend mode="normal" in2="effect3_dropShadow_39_244" result="effect4_dropShadow_39_244"/>
<feBlend mode="normal" in="SourceGraphic" in2="effect4_dropShadow_39_244" result="shape"/>
</filter>
<filter id="filter7_dddd_39_244" x="420" y="37" width="300" height="300" filterUnits="userSpaceOnUse" color-interpolation-filters="sRGB">
<feFlood flood-opacity="0" result="BackgroundImageFix"/>
<feColorMatrix in="SourceAlpha" type="matrix" values="0 0 0 0 0 0 0 0 0 0 0 0 0 0 0 0 0 0 127 0" result="hardAlpha"/>
<feOffset dy="2.30969"/>
<feGaussianBlur stdDeviation="1.81152"/>
<feColorMatrix type="matrix" values="0 0 0 0 0.662745 0 0 0 0 0.313726 0 0 0 0 0.768627 0 0 0 0.0278729 0"/>
<feBlend mode="normal" in2="BackgroundImageFix" result="effect1_dropShadow_39_244"/>
<feColorMatrix in="SourceAlpha" type="matrix" values="0 0 0 0 0 0 0 0 0 0 0 0 0 0 0 0 0 0 127 0" result="hardAlpha"/>
<feOffset dy="6.38599"/>
<feGaussianBlur stdDeviation="5.00862"/>
<feColorMatrix type="matrix" values="0 0 0 0 0.662745 0 0 0 0 0.313726 0 0 0 0 0.768627 0 0 0 0.04 0"/>
<feBlend mode="normal" in2="effect1_dropShadow_39_244" result="effect2_dropShadow_39_244"/>
<feColorMatrix in="SourceAlpha" type="matrix" values="0 0 0 0 0 0 0 0 0 0 0 0 0 0 0 0 0 0 127 0" result="hardAlpha"/>
<feOffset dy="15.375"/>
<feGaussianBlur stdDeviation="12.0588"/>
<feColorMatrix type="matrix" values="0 0 0 0 0.662745 0 0 0 0 0.313726 0 0 0 0 0.768627 0 0 0 0.0521271 0"/>
<feBlend mode="normal" in2="effect2_dropShadow_39_244" result="effect3_dropShadow_39_244"/>
<feColorMatrix in="SourceAlpha" type="matrix" values="0 0 0 0 0 0 0 0 0 0 0 0 0 0 0 0 0 0 127 0" result="hardAlpha"/>
<feOffset dy="51"/>
<feGaussianBlur stdDeviation="40"/>
<feColorMatrix type="matrix" values="0 0 0 0 0.662745 0 0 0 0 0.313726 0 0 0 0 0.768627 0 0 0 0.08 0"/>
<feBlend mode="normal" in2="effect3_dropShadow_39_244" result="effect4_dropShadow_39_244"/>
<feBlend mode="normal" in="SourceGraphic" in2="effect4_dropShadow_39_244" result="shape"/>
</filter>
<filter id="filter8_dddd_39_244" x="0" y="117" width="300" height="300" filterUnits="userSpaceOnUse" color-interpolation-filters="sRGB">
<feFlood flood-opacity="0" result="BackgroundImageFix"/>
<feColorMatrix in="SourceAlpha" type="matrix" values="0 0 0 0 0 0 0 0 0 0 0 0 0 0 0 0 0 0 127 0" result="hardAlpha"/>
<feOffset dy="2.30969"/>
<feGaussianBlur stdDeviation="1.81152"/>
<feColorMatrix type="matrix" values="0 0 0 0 0.662745 0 0 0 0 0.313726 0 0 0 0 0.768627 0 0 0 0.0278729 0"/>
<feBlend mode="normal" in2="BackgroundImageFix" result="effect1_dropShadow_39_244"/>
<feColorMatrix in="SourceAlpha" type="matrix" values="0 0 0 0 0 0 0 0 0 0 0 0 0 0 0 0 0 0 127 0" result="hardAlpha"/>
<feOffset dy="6.38599"/>
<feGaussianBlur stdDeviation="5.00862"/>
<feColorMatrix type="matrix" values="0 0 0 0 0.662745 0 0 0 0 0.313726 0 0 0 0 0.768627 0 0 0 0.04 0"/>
<feBlend mode="normal" in2="effect1_dropShadow_39_244" result="effect2_dropShadow_39_244"/>
<feColorMatrix in="SourceAlpha" type="matrix" values="0 0 0 0 0 0 0 0 0 0 0 0 0 0 0 0 0 0 127 0" result="hardAlpha"/>
<feOffset dy="15.375"/>
<feGaussianBlur stdDeviation="12.0588"/>
<feColorMatrix type="matrix" values="0 0 0 0 0.662745 0 0 0 0 0.313726 0 0 0 0 0.768627 0 0 0 0.0521271 0"/>
<feBlend mode="normal" in2="effect2_dropShadow_39_244" result="effect3_dropShadow_39_244"/>
<feColorMatrix in="SourceAlpha" type="matrix" values="0 0 0 0 0 0 0 0 0 0 0 0 0 0 0 0 0 0 127 0" result="hardAlpha"/>
<feOffset dy="51"/>
<feGaussianBlur stdDeviation="40"/>
<feColorMatrix type="matrix" values="0 0 0 0 0.662745 0 0 0 0 0.313726 0 0 0 0 0.768627 0 0 0 0.08 0"/>
<feBlend mode="normal" in2="effect3_dropShadow_39_244" result="effect4_dropShadow_39_244"/>
<feBlend mode="normal" in="SourceGraphic" in2="effect4_dropShadow_39_244" result="shape"/>
</filter>
<linearGradient id="paint0_linear_39_244" x1="-nan" y1="-nan" x2="-nan" y2="-nan" gradientUnits="userSpaceOnUse">
<stop stop-color="#82269E"/>
<stop offset="1" stop-color="#82269E" stop-opacity="0"/>
</linearGradient>
<linearGradient id="paint1_linear_39_244" x1="469.146" y1="102.849" x2="93.4088" y2="302.865" gradientUnits="userSpaceOnUse">
<stop stop-color="#A950C4"/>
<stop offset="1" stop-color="#82269E"/>
</linearGradient>
<linearGradient id="paint2_linear_39_244" x1="367.06" y1="249.989" x2="361.348" y2="260.493" gradientUnits="userSpaceOnUse">
<stop stop-color="#A950C4"/>
<stop offset="1" stop-color="#82269E"/>
</linearGradient>
<linearGradient id="paint3_linear_39_244" x1="368.475" y1="244.151" x2="367.062" y2="250.649" gradientUnits="userSpaceOnUse">
<stop stop-color="#A950C4"/>
<stop offset="1" stop-color="#82269E"/>
</linearGradient>
<linearGradient id="paint4_linear_39_244" x1="362.244" y1="245.54" x2="360.727" y2="245.653" gradientUnits="userSpaceOnUse">
<stop stop-color="#A950C4"/>
<stop offset="1" stop-color="#82269E"/>
</linearGradient>
<linearGradient id="paint5_linear_39_244" x1="360.286" y1="239.009" x2="357.235" y2="243.918" gradientUnits="userSpaceOnUse">
<stop stop-color="#A950C4"/>
<stop offset="1" stop-color="#82269E"/>
</linearGradient>
<linearGradient id="paint6_linear_39_244" x1="367.465" y1="239.009" x2="364.414" y2="243.918" gradientUnits="userSpaceOnUse">
<stop stop-color="#A950C4"/>
<stop offset="1" stop-color="#82269E"/>
</linearGradient>
<linearGradient id="paint7_linear_39_244" x1="586.56" y1="558.455" x2="567.349" y2="590.664" gradientUnits="userSpaceOnUse">
<stop stop-color="#A950C4"/>
<stop offset="1" stop-color="#82269E"/>
</linearGradient>
<linearGradient id="paint8_linear_39_244" x1="-nan" y1="-nan" x2="-nan" y2="-nan" gradientUnits="userSpaceOnUse">
<stop stop-color="#A950C4"/>
<stop offset="1" stop-color="#82269E"/>
</linearGradient>
<linearGradient id="paint9_linear_39_244" x1="582.42" y1="120.67" x2="554.634" y2="148.123" gradientUnits="userSpaceOnUse">
<stop stop-color="#A950C4"/>
<stop offset="1" stop-color="#82269E"/>
</linearGradient>
<linearGradient id="paint10_linear_39_244" x1="166.56" y1="194.1" x2="126.993" y2="230.586" gradientUnits="userSpaceOnUse">
<stop stop-color="#A950C4"/>
<stop offset="1" stop-color="#82269E"/>
</linearGradient>
<clipPath id="clip0_39_244">
<rect x="202.43" y="11" width="315.887" height="684" rx="16.8473" fill="white"/>
</clipPath>
<clipPath id="clip1_39_244">
<rect x="202.873" y="12.96" width="315" height="682.08" rx="16.8" fill="white"/>
</clipPath>
<clipPath id="clip2_39_244">
<rect width="315" height="93.24" fill="white" transform="translate(202.873 559.8)"/>
</clipPath>
<clipPath id="clip3_39_244">
<rect x="202.43" y="11" width="315.887" height="684" rx="16.8473" fill="white"/>
</clipPath>
<clipPath id="clip4_39_244">
<rect width="315.887" height="93.5025" fill="white" transform="translate(202.43 559.379)"/>
</clipPath>
<clipPath id="clip5_39_244">
<rect x="202.43" y="11" width="315.887" height="684" rx="16.8473" fill="white"/>
</clipPath>
<clipPath id="clip6_39_244">
<rect width="315.887" height="93.5025" fill="white" transform="translate(201.587 559.379)"/>
</clipPath>
</defs>
</svg>
