<svg viewBox="0 0 819 1143" fill="none" xmlns="http://www.w3.org/2000/svg">
<g id="fignu3">
<g id="fignu3-shadow" filter="url(#filter0_f_24_91)">
<path id="Vector" class="fignu3-shadow" d="M397.5 1064C572.85 1064 715 1050.57 715 1034C715 1017.43 572.85 1004 397.5 1004C222.15 1004 80 1017.43 80 1034C80 1050.57 222.15 1064 397.5 1064Z" fill="#464646" fill-opacity="0.15"/>
</g>
<g id="fignu3-card-verse" class="fignu3-card-verse">
<path id="Rectangle 1018" d="M551.046 351.087L141.13 77.1897C132.707 71.5621 123.537 74.8701 120.646 84.5783L35.2332 371.456C32.3427 381.164 36.8271 393.597 45.2494 399.224L455.166 673.121C463.588 678.749 472.759 675.441 475.65 665.733L561.063 378.855C563.953 369.147 559.469 356.714 551.046 351.087Z" fill="url(#paint0_linear_24_91)"/>
<path id="Rectangle 1019" d="M559.388 384.48L118.972 90.2031L96.4997 165.68L536.916 459.956L559.388 384.48Z" fill="#D6D6D6"/>
<path id="Rectangle 1020" d="M157.596 278.712L124.856 256.836C107.377 245.157 88.3452 252.022 82.3466 272.169C76.348 292.317 85.6546 318.117 103.133 329.796L135.873 351.673C153.352 363.352 172.384 356.486 178.383 336.339C184.382 316.191 175.075 290.391 157.596 278.712Z" fill="url(#paint1_linear_24_91)"/>
<text id="5032 9334 3764 9846" transform="matrix(0.83147 0.55557 -0.285354 0.958422 66.1064 326.714)" fill="#FBF8FC" xml:space="preserve" style="white-space: pre" font-family="Sora" font-size="26.4108" letter-spacing="0em"><tspan x="0" y="25.4797">5032 9334 3764 9846</tspan></text>
<text id="gold" transform="matrix(0.83147 0.55557 -0.285354 0.958422 131.538 205.204)" fill="#F3F0F5" xml:space="preserve" style="white-space: pre" font-family="Sora" font-size="26.4108" font-weight="bold" letter-spacing="0em"><tspan x="0" y="25.4797">gold</tspan></text>
<text id="02/17" transform="matrix(0.83147 0.55557 -0.285354 0.958422 79.5991 384.567)" fill="#FBF8FC" xml:space="preserve" style="white-space: pre" font-family="Sora" font-size="13.2054" letter-spacing="0em"><tspan x="0" y="12.9898">02/17</tspan></text>
<text id="02/20" transform="matrix(0.83147 0.55557 -0.285354 0.958422 141.819 426.141)" fill="#FBF8FC" xml:space="preserve" style="white-space: pre" font-family="Sora" font-size="13.2054" letter-spacing="0em"><tspan x="0" y="12.9898">02/20</tspan></text>
<text id="123" transform="matrix(0.83147 0.55557 -0.285354 0.958422 211.968 473.013)" fill="#FBF8FC" xml:space="preserve" style="white-space: pre" font-family="Sora" font-size="13.2054" letter-spacing="0em"><tspan x="0" y="12.9898">123</tspan></text>
<g id="Group 346">
<text id="cirrus." transform="matrix(0.83147 0.55557 -0.285354 0.958422 418.323 617.549)" fill="#FBF9FC" xml:space="preserve" style="white-space: pre" font-family="Sora" font-size="9.53725" font-weight="bold" letter-spacing="0em"><tspan x="0" y="9.24267">cirrus.</tspan></text>
<path id="Ellipse 7" d="M419.811 617.464C430.255 624.442 441.627 620.341 445.211 608.302C448.795 596.264 443.234 580.848 432.791 573.87C422.347 566.892 410.975 570.994 407.391 583.032C403.807 595.07 409.368 610.486 419.811 617.464Z" fill="#0167B2"/>
<path id="Ellipse 8" d="M442.991 632.952C453.435 639.93 464.807 635.829 468.391 623.79C471.975 611.752 466.414 596.336 455.971 589.358C445.527 582.38 434.155 586.482 430.571 598.52C426.987 610.558 432.548 625.974 442.991 632.952Z" fill="#02A1E2"/>
<path id="Intersect" fill-rule="evenodd" clip-rule="evenodd" d="M432.705 620.515C438.377 619.533 443.131 615.212 445.224 608.18C447.318 601.149 446.288 592.963 442.986 585.984C437.313 586.967 432.56 591.288 430.467 598.319C428.373 605.351 429.403 613.536 432.705 620.515Z" fill="#207CBD"/>
</g>
<g id="member since">
<text id="MEMBER" transform="matrix(0.83147 0.55557 -0.285354 0.958422 54.606 370.256)" fill="#FBF8FC" xml:space="preserve" style="white-space: pre" font-family="Source Sans Pro" font-size="4.40181" letter-spacing="0em"><tspan x="0" y="4.56484">MEMBER </tspan></text>
<text id="SINCE" transform="matrix(0.83147 0.55557 -0.285354 0.958422 52.8936 376.007)" fill="#FBF8FC" xml:space="preserve" style="white-space: pre" font-family="Source Sans Pro" font-size="4.40181" letter-spacing="0em"><tspan x="0" y="4.56484">SINCE</tspan></text>
</g>
<g id="valid thru">
<text id="VALID" transform="matrix(0.83147 0.55557 -0.285354 0.958422 122.925 415.906)" fill="#FBF8FC" xml:space="preserve" style="white-space: pre" font-family="Source Sans Pro" font-size="4.40181" letter-spacing="0em"><tspan x="0" y="4.56484">VALID </tspan></text>
<text id="THRU" transform="matrix(0.83147 0.55557 -0.285354 0.958422 121.213 421.657)" fill="#FBF8FC" xml:space="preserve" style="white-space: pre" font-family="Source Sans Pro" font-size="4.40181" letter-spacing="0em"><tspan x="0" y="4.56484">THRU</tspan></text>
</g>
<g id="security code">
<text id="SECURITY" transform="matrix(0.83147 0.55557 -0.285354 0.958422 185.145 457.479)" fill="#FBF8FC" xml:space="preserve" style="white-space: pre" font-family="Source Sans Pro" font-size="4.40181" letter-spacing="0em"><tspan x="0" y="4.56484">SECURITY </tspan></text>
<text id="CODE" transform="matrix(0.83147 0.55557 -0.285354 0.958422 183.432 463.23)" fill="#FBF8FC" xml:space="preserve" style="white-space: pre" font-family="Source Sans Pro" font-size="4.40181" letter-spacing="0em"><tspan x="0" y="4.56484">CODE</tspan></text>
</g>
<path id="Vector_2" d="M282.942 330.431C282.83 330.804 282.595 331.076 282.288 331.187C281.981 331.298 281.626 331.239 281.303 331.022L273.983 326.131L270.706 327.314L274.055 316.063C274.166 315.691 274.401 315.419 274.708 315.308C275.016 315.197 275.37 315.256 275.694 315.472L284.234 321.179C284.557 321.395 284.823 321.75 284.974 322.167C285.124 322.583 285.146 323.027 285.035 323.4L282.942 330.431Z" stroke="#FBF8FC" stroke-width="0.733634" stroke-linecap="round" stroke-linejoin="round"/>
<g id="Group 347">
<path id="Vector_2_2" d="M267.403 360.513C270.772 362.764 274.44 361.441 275.596 357.558C276.753 353.674 274.959 348.701 271.59 346.45C268.221 344.199 264.553 345.523 263.397 349.406C262.24 353.289 264.034 358.262 267.403 360.513Z" stroke="#FBF8FC" stroke-width="0.733634" stroke-linecap="round" stroke-linejoin="round"/>
<path id="Vector_3" d="M268.349 350.186C268.633 349.812 269.034 349.605 269.481 349.602C269.929 349.598 270.395 349.799 270.796 350.167C271.196 350.536 271.507 351.05 271.672 351.617C271.836 352.184 271.845 352.768 271.696 353.266C271.278 354.672 269.238 354.152 269.238 354.152" stroke="#FBF8FC" stroke-width="0.733634" stroke-linecap="round" stroke-linejoin="round"/>
<path id="Vector_4" d="M268.45 356.998L268.456 357.002" stroke="#FBF8FC" stroke-width="0.733634" stroke-linecap="round" stroke-linejoin="round"/>
</g>
<g id="Est&#195;&#161; com d&#195;&#186;vidas? Nosso app pode te ajudar.">
<text id="Est&#195;&#161; com d&#195;&#186;vidas?" transform="matrix(0.83147 0.55557 -0.285354 0.958422 294.427 323.787)" fill="#FBF8FC" xml:space="preserve" style="white-space: pre" font-family="Source Sans Pro" font-size="6.60271" letter-spacing="0em"><tspan x="0" y="6.34726">Est&#xe1; com d&#xfa;vidas? </tspan></text>
<text id="Nosso app pode te ajudar." transform="matrix(0.83147 0.55557 -0.285354 0.958422 291.574 333.371)" fill="#FBF8FC" xml:space="preserve" style="white-space: pre" font-family="Source Sans Pro" font-size="6.60271" letter-spacing="0em"><tspan x="0" y="6.34726">Nosso app pode te ajudar.</tspan></text>
</g>
<g id="Fale com a gente: 0800 591 2117">
<text id="Fale com a gente:" transform="matrix(0.83147 0.55557 -0.285354 0.958422 285.634 353.319)" fill="#FBF8FC" xml:space="preserve" style="white-space: pre" font-family="Source Sans Pro" font-size="6.60271" letter-spacing="0em"><tspan x="0" y="6.34726">Fale com a gente: </tspan></text>
<text id="0800 591 2117" transform="matrix(0.83147 0.55557 -0.285354 0.958422 282.781 362.903)" fill="#FBF8FC" xml:space="preserve" style="white-space: pre" font-family="Source Sans Pro" font-size="6.60271" letter-spacing="0em"><tspan x="0" y="6.34726">0800 591 2117</tspan></text>
</g>
<path id="Ellipse 170" d="M137.537 336.123C148.149 343.213 159.705 339.045 163.347 326.813C166.989 314.581 161.338 298.916 150.726 291.825C140.114 284.735 128.559 288.903 124.917 301.135C121.275 313.367 126.925 329.032 137.537 336.123Z" fill="#D9D9D9"/>
<path id="Subtract" fill-rule="evenodd" clip-rule="evenodd" d="M134.078 262.998L124.856 256.836C107.377 245.157 88.345 252.022 82.3464 272.17C76.3478 292.317 85.6544 318.118 103.133 329.797L112.471 336.036C140.484 321.181 146.82 306.267 134.078 262.998Z" fill="url(#paint2_linear_24_91)"/>
</g>
<g id="fignu3-card-front" class="fignu3-card-front">
<path id="Vector_5" d="M620.878 306.277L244.721 629.847C236.993 636.495 234.569 649.202 239.309 658.228L379.352 924.948C384.092 933.974 394.199 935.901 401.928 929.253L778.084 605.683C785.813 599.035 788.236 586.328 783.497 577.302L643.453 310.582C638.714 301.556 628.607 299.629 620.878 306.277Z" fill="url(#paint3_linear_24_91)"/>
<text id="RHUAN LUCAS" transform="matrix(0.464875 0.885376 -0.75811 0.652127 392.575 561.686)" fill="white" xml:space="preserve" style="white-space: pre" font-family="Sora" font-size="17.7206" font-weight="600" letter-spacing="0em"><tspan x="0" y="17.025">RHUAN  LUCAS</tspan></text>
<path id="Vector_6" fill-rule="evenodd" clip-rule="evenodd" d="M321.915 637.648C321.907 637.655 321.904 637.659 321.904 637.659C321.904 637.659 321.909 637.657 321.919 637.653C321.963 637.633 322.099 637.573 322.347 637.54C322.67 637.495 323.098 637.51 323.574 637.663C324.503 637.963 325.675 638.811 326.615 640.955C330.453 649.708 327.959 658.442 324.43 661.478L313.233 671.11L302.036 680.741C301.805 680.94 301.694 680.966 301.667 680.969C301.639 680.954 301.544 680.885 301.402 680.615L298.752 675.567C298.61 675.297 298.596 675.158 298.595 675.118C298.608 675.088 298.669 674.967 298.9 674.768L319.572 656.986C321.041 655.722 322.039 653.646 322.461 651.535C322.886 649.417 322.772 647.06 321.801 645.212L319.101 640.069L321.915 637.648ZM319.921 646.83L317.22 641.686L292.634 662.835C292.045 663.342 291.317 663.789 290.534 663.614C289.768 663.442 289.291 662.747 288.967 662.13L286.268 656.99C285.967 656.416 285.689 655.629 285.814 654.701C285.946 653.723 286.471 652.957 287.143 652.378L308.05 634.394C309.216 633.391 310.983 632.979 312.589 633.151C314.216 633.326 315.986 634.137 316.982 636.033L317.948 637.873L320.766 635.448C321.179 635.093 321.749 634.902 322.288 634.829C322.871 634.749 323.564 634.783 324.297 635.02C325.787 635.5 327.389 636.797 328.575 639.502C332.798 649.133 330.347 659.576 325.583 663.674L303.189 682.937C302.634 683.414 301.943 683.797 301.196 683.674C300.437 683.55 299.9 682.951 299.522 682.232L296.871 677.184C296.494 676.466 296.264 675.602 296.46 674.655C296.654 673.723 297.192 673.049 297.746 672.572L318.418 654.79C319.291 654.039 320.007 652.67 320.323 651.094C320.637 649.527 320.513 647.957 319.921 646.83ZM315.101 637.65L316.067 639.49L291.481 660.639C291.292 660.802 291.17 660.876 291.102 660.908C291.048 660.849 290.963 660.733 290.848 660.513L288.149 655.373C288.002 655.093 287.991 654.956 287.99 654.928C288.007 654.885 288.076 654.764 288.297 654.574L309.203 636.591C309.76 636.111 310.929 635.73 312.214 635.869C313.478 636.004 314.555 636.609 315.101 637.65ZM287.985 654.945C287.985 654.945 287.985 654.94 287.989 654.931C287.987 654.941 287.985 654.945 287.985 654.945ZM310.993 711.656C311 711.649 311.004 711.645 311.004 711.645C311.004 711.645 310.999 711.647 310.988 711.651C310.945 711.67 310.809 711.73 310.561 711.764C310.238 711.809 309.81 711.794 309.334 711.64C308.405 711.341 307.233 710.493 306.292 708.349C302.455 699.596 304.949 690.862 308.477 687.827L330.872 668.563C331.103 668.364 331.214 668.338 331.24 668.335C331.268 668.35 331.363 668.419 331.505 668.689L334.156 673.738C334.298 674.008 334.312 674.147 334.312 674.185C334.3 674.216 334.239 674.337 334.008 674.536L313.337 692.318C311.867 693.582 310.869 695.658 310.446 697.769C310.022 699.888 310.136 702.244 311.106 704.092L313.807 709.235L310.993 711.656ZM331.233 668.332C331.233 668.332 331.235 668.333 331.237 668.333C331.234 668.332 331.232 668.331 331.232 668.331L331.233 668.332ZM334.312 674.197C334.312 674.197 334.311 674.195 334.312 674.19C334.312 674.195 334.312 674.197 334.312 674.197ZM312.987 702.474L315.687 707.617L340.273 686.469C340.863 685.962 341.591 685.516 342.374 685.69C343.14 685.862 343.617 686.556 343.941 687.173L346.64 692.314C346.941 692.888 347.219 693.675 347.093 694.603C346.962 695.581 346.437 696.347 345.764 696.926L324.858 714.91C323.692 715.912 321.925 716.325 320.319 716.153C318.691 715.978 316.922 715.168 315.926 713.271L314.96 711.432L312.142 713.856C311.729 714.211 311.159 714.402 310.619 714.476C310.036 714.556 309.344 714.521 308.611 714.284C307.121 713.803 305.519 712.508 304.333 709.801C300.11 700.171 302.561 689.727 307.324 685.63L329.718 666.367C330.273 665.889 330.964 665.507 331.711 665.63C332.471 665.754 333.009 666.353 333.386 667.071L336.037 672.12C336.414 672.839 336.644 673.702 336.447 674.649C336.254 675.58 335.716 676.255 335.161 676.732L314.49 694.514C313.617 695.264 312.9 696.634 312.585 698.209C312.271 699.778 312.395 701.346 312.987 702.474ZM317.807 711.653L316.841 709.814L341.426 688.665C341.616 688.502 341.737 688.428 341.806 688.397C341.86 688.455 341.944 688.571 342.06 688.791L344.759 693.932C344.905 694.211 344.917 694.348 344.918 694.377C344.9 694.419 344.832 694.539 344.611 694.73L323.704 712.713C323.147 713.193 321.979 713.573 320.693 713.435C319.43 713.299 318.353 712.695 317.807 711.653ZM344.923 694.362C344.923 694.36 344.923 694.359 344.923 694.359C344.923 694.359 344.921 694.364 344.919 694.373C344.921 694.367 344.922 694.364 344.923 694.362Z" fill="#FBF8FC"/>
<path id="Vector_7" d="M594.397 431.495C603.07 448.013 621.566 451.54 635.71 439.374C649.853 427.208 654.288 403.955 645.615 387.437C636.943 370.919 618.446 367.391 604.303 379.558C590.159 391.724 585.724 414.977 594.397 431.495Z" fill="#E71924"/>
<path id="Vector_8" d="M613.536 467.945C622.208 484.463 640.705 487.991 654.848 475.824C668.992 463.658 673.427 440.405 664.754 423.887C656.081 407.369 637.585 403.841 623.441 416.008C609.298 428.174 604.863 451.427 613.536 467.945Z" fill="#F99F19"/>
<path id="Vector_9" fill-rule="evenodd" clip-rule="evenodd" d="M609.369 445.072C617.782 448.149 627.54 446.402 635.811 439.288C644.081 432.174 649.031 421.269 649.983 410.136C641.57 407.059 631.812 408.807 623.542 415.921C615.272 423.036 610.321 433.94 609.369 445.072Z" fill="#F26520"/>
<path id="Vector_10" d="M646.306 579.538L694.324 538.234C696.202 536.618 696.791 533.529 695.639 531.336L676.01 493.95C674.858 491.757 672.401 491.288 670.523 492.904L622.506 534.208C620.627 535.824 620.038 538.912 621.19 541.106L640.82 578.492C641.971 580.685 644.428 581.154 646.306 579.538Z" fill="url(#paint4_linear_24_91)" stroke="#211F21" stroke-width="1.58345"/>
<path id="Vector_11" d="M689.795 520.759L673.39 534.872" stroke="#211F21" stroke-width="1.47672" stroke-linecap="round"/>
<path id="Vector_12" d="M682.189 506.273L666.143 520.076" stroke="#211F21" stroke-width="1.47672" stroke-linecap="round"/>
<path id="Vector_13" d="M643.776 539.316L627.77 553.084" stroke="#211F21" stroke-width="1.47672" stroke-linecap="round"/>
<path id="Vector_14" d="M651.376 553.129L635.131 567.104" stroke="#211F21" stroke-width="1.47672" stroke-linecap="round"/>
<path id="Vector_15" d="M666.021 550.707C665.358 551.278 665.15 552.368 665.556 553.142C665.963 553.916 666.83 554.081 667.493 553.511C668.156 552.941 668.364 551.851 667.957 551.077C667.551 550.302 666.684 550.137 666.021 550.707Z" fill="#211F21"/>
<path id="Vector_16" d="M596.372 575.394C597.964 586.584 600.192 591.757 608.104 597.738C608.944 598.373 609.004 599.451 608.685 599.951C608.367 600.452 607.666 600.828 606.794 600.222C597.94 594.064 595.381 588.54 593.835 576.093C593.745 574.814 594.431 574.052 595.067 574.015C595.812 573.972 596.238 574.45 596.372 575.394Z" fill="#FBF8FC"/>
<path id="Vector_17" d="M611.938 593.423C612.215 592.844 612.006 591.739 611.033 591.148C604.907 586.922 603.054 583.086 602.077 574.091C602.001 573.165 601.43 572.56 600.818 572.8C600.095 573.082 599.833 574.03 599.909 574.939C600.726 584.688 602.82 588.892 609.847 593.865C610.495 594.324 611.522 594.289 611.938 593.423Z" fill="#FBF8FC"/>
<path id="Vector_18" d="M614.344 586.943C614.822 586.193 614.521 585.325 613.763 584.73C609.822 581.629 608.254 579.338 607.751 573.28C607.702 572.191 607.386 571.264 606.57 571.583C605.754 571.902 605.483 572.739 605.538 573.489C606.048 580.997 608.189 583.611 612.898 587.508C613.301 587.84 613.867 587.693 614.344 586.943Z" fill="#FBF8FC"/>
<path id="Vector_19" d="M617.564 581.46C617.919 580.476 617.632 579.694 616.538 578.951C614.232 577.359 613.529 575.956 613.225 572.642C613.115 571.16 612.599 569.789 611.675 570.244C610.753 570.699 610.572 571.336 610.811 573.023C611.59 577.333 612.509 579.358 615.473 581.902C616.209 582.59 617.01 582.615 617.564 581.46Z" fill="#FBF8FC"/>
<path id="Vector_20" d="M656.482 556.879C661.224 561.664 665.668 562.204 670.27 558.246C675.872 553.427 674.84 547.084 673.513 535.106C668.182 531.006 666.467 527.803 665.783 520.385C655.888 511.454 651.288 510.038 646.76 514.023C640.757 519.186 642.168 526.597 643.976 539.144C648.583 543.13 650.354 545.992 651.618 552.853" stroke="#211F21" stroke-width="1.47672" stroke-linecap="round"/>
</g>
</g>
<defs>
<filter id="filter0_f_24_91" x="13" y="937" width="769" height="194" filterUnits="userSpaceOnUse" color-interpolation-filters="sRGB">
<feFlood flood-opacity="0" result="BackgroundImageFix"/>
<feBlend mode="normal" in="SourceGraphic" in2="BackgroundImageFix" result="shape"/>
<feGaussianBlur stdDeviation="33.5" result="effect1_foregroundBlur_24_91"/>
</filter>
<linearGradient id="paint0_linear_24_91" x1="485.088" y1="359.138" x2="202.454" y2="535.144" gradientUnits="userSpaceOnUse">
<stop stop-color="#A950C4"/>
<stop offset="1" stop-color="#82269E"/>
</linearGradient>
<linearGradient id="paint1_linear_24_91" x1="122.066" y1="342.644" x2="177.349" y2="302.925" gradientUnits="userSpaceOnUse">
<stop stop-color="#F6F3F7"/>
<stop offset="1" stop-color="#D6D6D6"/>
</linearGradient>
<linearGradient id="paint2_linear_24_91" x1="135.776" y1="268.347" x2="82.841" y2="300.869" gradientUnits="userSpaceOnUse">
<stop stop-color="#F5F5F5"/>
<stop offset="1" stop-color="#D6D6D6"/>
</linearGradient>
<linearGradient id="paint3_linear_24_91" x1="593.452" y1="388.544" x2="661.576" y2="807.481" gradientUnits="userSpaceOnUse">
<stop stop-color="#A950C4"/>
<stop offset="1" stop-color="#82269E"/>
</linearGradient>
<linearGradient id="paint4_linear_24_91" x1="644" y1="573.166" x2="678.369" y2="499.163" gradientUnits="userSpaceOnUse">
<stop stop-color="#F4F4F4"/>
<stop offset="1" stop-color="#D6D6D6"/>
</linearGradient>
</defs>
</svg>
