<svg width="458" height="722" viewBox="0 0 458 722" fill="none" xmlns="http://www.w3.org/2000/svg">
<g clip-path="url(#clip0_24_71)">
<g filter="url(#filter0_i_24_71)">
<path d="M0 25.0001L0 697C0 710.807 11.1929 722 25 722L433 722C446.807 722 458 710.807 458 697L458 25C458 11.1929 446.807 4.2636e-05 433 4.32046e-05L25 6.00057e-05C11.1929 6.05742e-05 0 11.1929 0 25.0001Z" fill="url(#paint0_linear_24_71)"/>
</g>
<text transform="translate(62.1948 471)" fill="white" xml:space="preserve" style="white-space: pre" font-family="Sora" font-size="24" font-weight="600" letter-spacing="0em"><tspan x="0" y="23.16">RHUAN  LUCAS</tspan></text>
<path fill-rule="evenodd" clip-rule="evenodd" d="M78.1914 607.043C78.1914 607.056 78.1925 607.063 78.1925 607.063C78.1925 607.063 78.1958 607.055 78.2002 607.04C78.2193 606.974 78.2793 606.768 78.4683 606.441C78.7149 606.014 79.1179 605.497 79.7115 605.01C80.8686 604.061 82.8248 603.166 85.9362 603.395C98.6392 604.327 105.582 613.041 105.582 619.345L105.582 639.348L105.582 659.352C105.582 659.765 105.509 659.918 105.488 659.953C105.446 659.978 105.287 660.05 104.874 660.05L97.1522 660.05C96.7392 660.05 96.5802 659.978 96.5382 659.953C96.5172 659.918 96.4452 659.765 96.4452 659.352L96.4452 622.422C96.4452 619.796 95.1612 617.227 93.3202 615.343C91.4732 613.452 88.8862 612.07 86.0592 612.07L78.1914 612.07L78.1914 607.043ZM86.0592 615.429L78.1914 615.429L78.1914 659.352C78.1913 660.405 78.0022 661.589 77.1075 662.44C76.2324 663.272 75.0685 663.409 74.1246 663.409L66.2616 663.409C65.3832 663.409 64.3022 663.242 63.4377 662.489C62.5271 661.695 62.1948 660.554 62.1948 659.352L62.1948 622.003C62.1948 619.92 63.3614 617.479 64.999 615.614C66.6587 613.724 69.1169 612.07 72.0176 612.07L74.8318 612.07L74.8318 607.035C74.8318 606.297 75.148 605.472 75.5592 604.761C76.0031 603.992 76.6674 603.162 77.5811 602.413C79.4383 600.889 82.2561 599.756 86.1822 600.044C100.158 601.07 108.941 610.835 108.941 619.345L108.941 659.352C108.941 660.343 108.718 661.441 107.911 662.281C107.092 663.134 105.974 663.409 104.874 663.409L97.1522 663.409C96.0532 663.409 94.9342 663.134 94.1152 662.281C93.3082 661.441 93.0852 660.343 93.0852 659.352L93.0852 622.422C93.0852 620.863 92.2912 619.097 90.9172 617.69C89.5502 616.291 87.7842 615.429 86.0592 615.429ZM72.0176 615.429L74.8318 615.429L74.8318 659.352C74.8318 659.69 74.7996 659.888 74.7711 659.992C74.6608 660.021 74.4612 660.05 74.1246 660.05L66.2616 660.05C65.8346 660.05 65.6802 659.975 65.649 659.958C65.6202 659.909 65.5544 659.747 65.5544 659.352L65.5544 622.003C65.5544 621.008 66.2127 619.323 67.5233 617.831C68.8118 616.363 70.425 615.429 72.0176 615.429ZM65.6623 659.975C65.6623 659.975 65.6578 659.972 65.6516 659.962C65.6596 659.97 65.6623 659.975 65.6623 659.975ZM146.277 668.305C146.277 668.292 146.276 668.285 146.276 668.285C146.276 668.285 146.273 668.292 146.268 668.308C146.249 668.373 146.189 668.579 146 668.907C145.754 669.333 145.351 669.85 144.757 670.337C143.6 671.286 141.644 672.181 138.532 671.953C125.83 671.02 118.887 662.307 118.887 656.003L118.887 615.996C118.887 615.583 118.96 615.43 118.981 615.395C119.022 615.37 119.181 615.298 119.594 615.298L127.317 615.298C127.73 615.298 127.889 615.37 127.93 615.395C127.951 615.43 128.024 615.583 128.024 615.996L128.024 652.925C128.024 655.551 129.307 658.121 131.148 660.005C132.996 661.896 135.583 663.278 138.409 663.278L146.277 663.278L146.277 668.305ZM118.971 615.402C118.971 615.402 118.974 615.4 118.976 615.398C118.971 615.401 118.969 615.403 118.969 615.403L118.971 615.402ZM127.942 615.403C127.942 615.403 127.939 615.402 127.935 615.398C127.94 615.401 127.942 615.403 127.942 615.403ZM138.409 659.918L146.277 659.918L146.277 615.996C146.277 614.943 146.467 613.759 147.361 612.908C148.236 612.076 149.4 611.938 150.344 611.938L158.207 611.938C159.085 611.938 160.167 612.105 161.031 612.859C161.942 613.653 162.274 614.793 162.274 615.996L162.274 653.345C162.274 655.427 161.107 657.869 159.47 659.734C157.81 661.624 155.352 663.278 152.451 663.278L149.637 663.278L149.637 668.312C149.637 669.051 149.321 669.875 148.91 670.587C148.466 671.356 147.801 672.186 146.888 672.935C145.03 674.458 142.213 675.592 138.286 675.303C124.31 674.277 115.527 664.512 115.527 656.003L115.527 615.996C115.527 615.005 115.75 613.907 116.557 613.067C117.376 612.213 118.495 611.938 119.594 611.938L127.317 611.938C128.416 611.938 129.535 612.213 130.354 613.067C131.16 613.907 131.383 615.005 131.383 615.996L131.383 652.925C131.383 654.484 132.177 656.251 133.551 657.657C134.919 659.057 136.684 659.918 138.409 659.918ZM152.451 659.918L149.637 659.918L149.637 615.996C149.637 615.657 149.669 615.46 149.698 615.356C149.808 615.327 150.007 615.298 150.344 615.298L158.207 615.298C158.634 615.298 158.789 615.372 158.82 615.39C158.849 615.439 158.914 615.6 158.914 615.996L158.914 653.345C158.914 654.34 158.256 656.024 156.945 657.517C155.657 658.984 154.044 659.918 152.451 659.918ZM158.809 615.374C158.807 615.373 158.806 615.372 158.806 615.372C158.806 615.372 158.809 615.378 158.817 615.386C158.813 615.38 158.811 615.376 158.809 615.374Z" fill="#FBF8FC"/>
<path d="M107.945 138.501C133.213 138.501 153.696 118.018 153.696 92.7505C153.696 67.4832 133.213 47 107.945 47C82.678 47 62.1948 67.4832 62.1948 92.7505C62.1948 118.018 82.678 138.501 107.945 138.501Z" fill="#E71924"/>
<path d="M163.703 138.501C188.97 138.501 209.454 118.018 209.454 92.7505C209.454 67.4832 188.97 47 163.703 47C138.436 47 117.953 67.4832 117.953 92.7505C117.953 118.018 138.436 138.501 163.703 138.501Z" fill="#F99F19"/>
<path fill-rule="evenodd" clip-rule="evenodd" d="M135.824 128.848C146.692 120.483 153.696 107.345 153.696 92.5706C153.696 77.7961 146.692 64.6574 135.824 56.293C124.956 64.6574 117.953 77.7961 117.953 92.5706C117.953 107.345 124.956 120.483 135.824 128.848Z" fill="#F26520"/>
<path d="M311 170.279L311 84.4971C311 81.1413 308.28 78.4209 304.924 78.4209L247.736 78.4209C244.38 78.4209 241.659 81.1413 241.659 84.4971L241.659 170.279C241.659 173.635 244.38 176.356 247.736 176.356L304.924 176.356C308.28 176.356 311 173.635 311 170.279Z" fill="url(#paint1_linear_24_71)" stroke="#211F21" stroke-width="2.14455"/>
<path d="M288.482 78.7783L288.482 108.087" stroke="#211F21" stroke-width="2" stroke-linecap="round"/>
<path d="M266.322 78.7783L266.322 107.445" stroke="#211F21" stroke-width="2" stroke-linecap="round"/>
<path d="M266.322 147.404L266.322 175.998" stroke="#211F21" stroke-width="2" stroke-linecap="round"/>
<path d="M287.767 146.975L287.767 175.998" stroke="#211F21" stroke-width="2" stroke-linecap="round"/>
<path d="M298.489 127.388C298.489 128.573 299.449 129.533 300.634 129.533C301.818 129.533 302.778 128.573 302.778 127.388C302.778 126.204 301.818 125.244 300.634 125.244C299.449 125.244 298.489 126.204 298.489 127.388Z" fill="#211F21"/>
<path d="M261.371 229.053C274.605 234.325 282.076 234.926 295.55 229.053C296.98 228.43 298.171 229.053 298.409 229.768C298.648 230.483 298.409 231.589 296.98 232.27C282.465 239.188 274.325 238.767 259.808 232.627C258.378 231.912 258.197 230.575 258.735 229.768C259.364 228.824 260.254 228.608 261.371 229.053Z" fill="#FBF8FC"/>
<path d="M294.478 221.547C294.12 220.832 292.765 220.375 291.261 221.19C281.255 225.999 275.533 225.801 265.169 221.19C264.124 220.686 262.969 220.998 262.667 221.905C262.309 222.977 263.07 223.913 264.097 224.406C275.111 229.701 281.439 229.84 293.048 224.406C294.12 223.905 295.014 222.619 294.478 221.547Z" fill="#FBF8FC"/>
<path d="M289.831 214.399C289.474 213.326 288.287 213.136 286.972 213.684C280.132 216.53 276.297 216.979 269.458 213.684C268.266 213.041 267.002 212.83 266.599 214.041C266.195 215.252 266.832 216.126 267.671 216.543C276.046 220.766 280.741 219.82 289.116 216.543C289.831 216.263 290.189 215.471 289.831 214.399Z" fill="#FBF8FC"/>
<path d="M286.972 206.893C286.257 205.82 285.173 205.668 283.398 206.535C279.631 208.344 277.515 208.303 273.747 206.535C272.085 205.713 270.173 205.463 269.815 206.893C269.458 208.322 269.966 208.957 271.96 209.752C277.208 211.578 280.175 211.756 285.542 209.752C286.934 209.291 287.687 208.322 286.972 206.893Z" fill="#FBF8FC"/>
<path d="M296.346 143.115C305.687 140.372 310.285 135.251 310.285 127.03C310.285 117.023 302.665 114.194 288.84 108.087C279.688 111.998 274.758 112.039 266.322 108.087C247.941 114.494 242.28 119.24 242.374 127.388C242.374 138.111 251.462 141.163 266.322 147.046C274.698 143.952 279.32 143.622 287.695 146.5" stroke="#211F21" stroke-width="2" stroke-linecap="round"/>
</g>
<defs>
<filter id="filter0_i_24_71" x="0" y="0" width="461" height="725" filterUnits="userSpaceOnUse" color-interpolation-filters="sRGB">
<feFlood flood-opacity="0" result="BackgroundImageFix"/>
<feBlend mode="normal" in="SourceGraphic" in2="BackgroundImageFix" result="shape"/>
<feColorMatrix in="SourceAlpha" type="matrix" values="0 0 0 0 0 0 0 0 0 0 0 0 0 0 0 0 0 0 127 0" result="hardAlpha"/>
<feOffset dx="3" dy="3"/>
<feGaussianBlur stdDeviation="3"/>
<feComposite in2="hardAlpha" operator="arithmetic" k2="-1" k3="1"/>
<feColorMatrix type="matrix" values="0 0 0 0 1 0 0 0 0 1 0 0 0 0 1 0 0 0 0.25 0"/>
<feBlend mode="normal" in2="shape" result="effect1_innerShadow_24_71"/>
</filter>
<linearGradient id="paint0_linear_24_71" x1="61.83" y1="111.91" x2="526.995" y2="367.904" gradientUnits="userSpaceOnUse">
<stop stop-color="#A950C4"/>
<stop offset="1" stop-color="#82269E"/>
</linearGradient>
<linearGradient id="paint1_linear_24_71" x1="302.195" y1="169" x2="246.195" y2="85" gradientUnits="userSpaceOnUse">
<stop stop-color="#F4F4F4"/>
<stop offset="1" stop-color="#D6D6D6"/>
</linearGradient>
<clipPath id="clip0_24_71">
<rect width="722" height="458" fill="white" transform="matrix(0 1 -1 0 458 0)"/>
</clipPath>
</defs>
</svg>
